<svg xmlns="http://www.w3.org/2000/svg" viewBox="0 0 2151.02 1018">
  <defs>
    <style>
      .a {
        fill: #fff5da;
      }

      .b {
        fill: #ffe7b3;
      }
    </style>
  </defs>
  <rect class="a" x="1.03" width="2149" height="1018"/>
  <g>
    <g>
      <path class="b" d="M84.43,859.53l0,2c55.35-1.53,101.62,42.45,103.14,98l2-.06C188.09,902.82,140.89,858,84.43,859.53Z" transform="translate(-0.97 -2.5)"/>
      <path class="b" d="M49.13,840.62l.38,1.22q2-.62,3.93-1.17l-.34-1.22C51.76,839.82,50.45,840.21,49.13,840.62Z" transform="translate(-0.97 -2.5)"/>
      <path class="b" d="M62,837.29l.25,1.26c1.33-.27,2.68-.51,4-.74l-.21-1.27C64.71,836.77,63.36,837,62,837.29Z" transform="translate(-0.97 -2.5)"/>
      <path class="b" d="M55.52,838.79l.32,1.23c1.32-.34,2.65-.65,4-.95l-.28-1.25C58.2,838.13,56.86,838.44,55.52,838.79Z" transform="translate(-0.97 -2.5)"/>
      <path class="b" d="M36.68,845.31l.5,1.15c1.25-.54,2.51-1.07,3.77-1.58l-.46-1.17C39.21,844.22,37.94,844.75,36.68,845.31Z" transform="translate(-0.97 -2.5)"/>
      <path class="b" d="M42.84,842.8l.44,1.19c1.28-.48,2.57-.94,3.86-1.38l-.4-1.2C45.43,841.85,44.13,842.32,42.84,842.8Z" transform="translate(-0.97 -2.5)"/>
      <path class="b" d="M81.8,834.89l0,1.29c1.36-.06,2.73-.09,4.1-.11l0-1.29C84.55,834.79,83.17,834.83,81.8,834.89Z" transform="translate(-0.97 -2.5)"/>
      <path class="b" d="M88.44,836.07c1.37,0,2.73,0,4.09.11l0-1.3c-1.37,0-2.75-.09-4.13-.1Z" transform="translate(-0.97 -2.5)"/>
      <path class="b" d="M95,836.31c1.37.08,2.73.18,4.08.31l.12-1.28c-1.37-.13-2.74-.24-4.12-.32Z" transform="translate(-0.97 -2.5)"/>
      <path class="b" d="M68.56,836.15l.19,1.27c1.35-.2,2.7-.38,4.06-.53l-.15-1.28C71.29,835.77,69.92,835.94,68.56,836.15Z" transform="translate(-0.97 -2.5)"/>
      <path class="b" d="M30.65,848.14l.56,1.12c1.22-.61,2.45-1.21,3.69-1.78l-.52-1.14C33.13,846.92,31.88,847.52,30.65,848.14Z" transform="translate(-0.97 -2.5)"/>
      <path class="b" d="M75.17,835.35l.11,1.28c1.36-.13,2.72-.23,4.09-.32L79.29,835C77.91,835.11,76.53,835.22,75.17,835.35Z" transform="translate(-0.97 -2.5)"/>
      <path class="b" d="M213,961.1l1.29,0c0-1.38-.05-2.76-.11-4.15l-1.28.06C212.93,958.35,213,959.72,213,961.1Z" transform="translate(-0.97 -2.5)"/>
      <path class="b" d="M206.47,922.11l1.21-.4c-.45-1.31-.91-2.62-1.39-3.91l-1.18.44C205.58,919.52,206,920.81,206.47,922.11Z" transform="translate(-0.97 -2.5)"/>
      <path class="b" d="M208.4,928.44l1.23-.34c-.37-1.34-.76-2.67-1.18-4l-1.21.39C207.65,925.8,208,927.12,208.4,928.44Z" transform="translate(-0.97 -2.5)"/>
      <path class="b" d="M202.76,909.3c-.57-1.26-1.17-2.51-1.78-3.75l-1.12.56c.61,1.22,1.2,2.46,1.77,3.71Z" transform="translate(-0.97 -2.5)"/>
      <path class="b" d="M204.22,915.9l1.16-.46c-.51-1.29-1-2.57-1.59-3.83l-1.15.5C203.19,913.36,203.71,914.63,204.22,915.9Z" transform="translate(-0.97 -2.5)"/>
      <path class="b" d="M101.58,836.88c1.36.16,2.71.33,4.06.53l.19-1.27c-1.36-.21-2.73-.38-4.1-.54Z" transform="translate(-0.97 -2.5)"/>
      <path class="b" d="M212.74,954.49l1.29-.08c-.08-1.39-.19-2.77-.32-4.14l-1.28.12C212.56,951.75,212.67,953.12,212.74,954.49Z" transform="translate(-0.97 -2.5)"/>
      <path class="b" d="M211.26,941.35l1.26-.21c-.23-1.37-.48-2.74-.75-4.09l-1.25.25C210.79,938.65,211,940,211.26,941.35Z" transform="translate(-0.97 -2.5)"/>
      <path class="b" d="M210,934.86l1.24-.28c-.3-1.35-.61-2.71-1-4l-1.23.32C209.39,932.18,209.7,933.52,210,934.86Z" transform="translate(-0.97 -2.5)"/>
      <path class="b" d="M212.17,947.9l1.27-.15c-.15-1.38-.33-2.75-.53-4.11l-1.27.18C211.85,945.18,212,946.53,212.17,947.9Z" transform="translate(-0.97 -2.5)"/>
      <path class="b" d="M24.78,851.27l.61,1.09c1.19-.68,2.39-1.33,3.6-2l-.58-1.11Q26.58,850.25,24.78,851.27Z" transform="translate(-0.97 -2.5)"/>
      <path class="b" d="M19.08,854.71l.67,1.06c1.15-.74,2.31-1.46,3.49-2.16l-.63-1.07C21.42,853.25,20.25,854,19.08,854.71Z" transform="translate(-0.97 -2.5)"/>
      <path class="b" d="M13.57,858.44l.72,1c1.11-.79,2.24-1.56,3.37-2.32l-.68-1C15.83,856.86,14.69,857.64,13.57,858.44Z" transform="translate(-0.97 -2.5)"/>
      <path class="b" d="M8.27,862.47l.76,1c1.07-.86,2.15-1.69,3.24-2.51l-.73-1C10.43,860.76,9.35,861.61,8.27,862.47Z" transform="translate(-0.97 -2.5)"/>
      <path class="b" d="M189.7,889.11c.79,1.12,1.56,2.25,2.32,3.39l1-.69c-.77-1.15-1.55-2.29-2.35-3.42Z" transform="translate(-0.97 -2.5)"/>
      <path class="b" d="M185.73,883.83c.85,1.07,1.69,2.16,2.5,3.26l1-.74c-.82-1.11-1.66-2.2-2.52-3.29Z" transform="translate(-0.97 -2.5)"/>
      <path class="b" d="M193.38,894.6c.73,1.15,1.44,2.32,2.14,3.5l1.07-.63c-.71-1.19-1.42-2.38-2.17-3.54Z" transform="translate(-0.97 -2.5)"/>
      <path class="b" d="M210.52,987.39l1.25.26c.27-1.35.52-2.72.75-4.09l-1.26-.21C211,984.7,210.79,986.06,210.52,987.39Z" transform="translate(-0.97 -2.5)"/>
      <path class="b" d="M211.64,980.88l1.27.18c.2-1.36.38-2.73.53-4.11l-1.27-.15C212,978.17,211.85,979.52,211.64,980.88Z" transform="translate(-0.97 -2.5)"/>
      <path class="b" d="M212.43,974.31l1.28.12c.13-1.37.23-2.75.32-4.14l-1.29-.08C212.67,971.58,212.56,973,212.43,974.31Z" transform="translate(-0.97 -2.5)"/>
      <path class="b" d="M212.88,967.71l1.28.06c.06-1.39.1-2.77.11-4.15l-1.29,0C213,965,212.93,966.34,212.88,967.71Z" transform="translate(-0.97 -2.5)"/>
      <path class="b" d="M209.05,993.84l1.23.32c.35-1.33.66-2.69,1-4l-1.24-.28C209.7,991.18,209.39,992.52,209.05,993.84Z" transform="translate(-0.97 -2.5)"/>
      <path class="b" d="M196.77,900.27c.67,1.19,1.32,2.39,1.95,3.61l1.11-.58c-.64-1.23-1.3-2.44-2-3.65Z" transform="translate(-0.97 -2.5)"/>
      <path class="b" d="M202.64,1012.59l1.15.51c.55-1.27,1.08-2.55,1.59-3.83l-1.16-.47C203.71,1010.08,203.18,1011.34,202.64,1012.59Z" transform="translate(-0.97 -2.5)"/>
      <path class="b" d="M207.24,1000.2l1.21.38c.42-1.31.81-2.64,1.18-4l-1.23-.34C208,997.58,207.65,998.9,207.24,1000.2Z" transform="translate(-0.97 -2.5)"/>
      <path class="b" d="M205.11,1006.46l1.18.44c.48-1.29.94-2.6,1.38-3.91l-1.2-.41C206,1003.89,205.58,1005.18,205.11,1006.46Z" transform="translate(-0.97 -2.5)"/>
      <path class="b" d="M127.25,842.59c1.3.44,2.59.9,3.86,1.38l.44-1.19c-1.28-.48-2.58-.95-3.9-1.39Z" transform="translate(-0.97 -2.5)"/>
      <path class="b" d="M133.44,844.86c1.28.5,2.53,1,3.78,1.58l.5-1.16c-1.26-.55-2.53-1.09-3.82-1.6Z" transform="translate(-0.97 -2.5)"/>
      <path class="b" d="M121,840.66c1.31.36,2.62.75,3.92,1.16l.38-1.22c-1.31-.41-2.63-.8-4-1.17Z" transform="translate(-0.97 -2.5)"/>
      <path class="b" d="M108.1,837.8c1.35.23,2.69.46,4,.74l.25-1.26c-1.35-.27-2.7-.52-4.07-.74Z" transform="translate(-0.97 -2.5)"/>
      <path class="b" d="M114.57,839.06c1.33.3,2.66.61,4,1l.32-1.24c-1.34-.35-2.68-.66-4-1Z" transform="translate(-0.97 -2.5)"/>
      <path class="b" d="M139.5,847.45c1.24.58,2.47,1.17,3.69,1.78l.56-1.13c-1.23-.61-2.48-1.21-3.73-1.79Z" transform="translate(-0.97 -2.5)"/>
      <path class="b" d="M162.14,860.9c1.1.82,2.17,1.65,3.24,2.5l.77-1c-1.08-.86-2.17-1.7-3.28-2.53Z" transform="translate(-0.97 -2.5)"/>
      <path class="b" d="M156.74,857.1c1.15.76,2.27,1.53,3.39,2.32l.71-1c-1.12-.8-2.26-1.58-3.41-2.35Z" transform="translate(-0.97 -2.5)"/>
      <path class="b" d="M145.41,850.36c1.21.64,2.41,1.3,3.6,2l.61-1.09q-1.8-1-3.63-2Z" transform="translate(-0.97 -2.5)"/>
      <path class="b" d="M151.16,853.58c1.18.7,2.35,1.41,3.5,2.15l.66-1.05c-1.16-.75-2.33-1.46-3.52-2.17Z" transform="translate(-0.97 -2.5)"/>
      <path class="b" d="M87.23,904.59a57.26,57.26,0,0,1,43.38,19.84L152.84,905a86.63,86.63,0,0,0-75.07-29.52L81,904.93A58.81,58.81,0,0,1,87.23,904.59Z" transform="translate(-0.97 -2.5)"/>
      <path class="b" d="M59.68,911.63l-14.12-26a87.67,87.67,0,0,0-16,11.29l19.52,22.15A57.67,57.67,0,0,1,59.68,911.63Z" transform="translate(-0.97 -2.5)"/>
      <path class="b" d="M158.84,912.76l-24.26,16.8a57.64,57.64,0,0,1,10.17,32.79,58.27,58.27,0,0,1-.78,9.5l29.1,4.87a88.46,88.46,0,0,0,1.18-14.37A87.17,87.17,0,0,0,158.84,912.76Z" transform="translate(-0.97 -2.5)"/>
      <path class="b" d="M29.71,962.35c0-.56,0-1.11,0-1.67L1,959.84v13.92a87.39,87.39,0,0,0,7.67,26.11l26.63-12.71A57.69,57.69,0,0,1,29.71,962.35Z" transform="translate(-0.97 -2.5)"/>
      <path class="b" d="M154.75,1017.4a88.5,88.5,0,0,0,5.24-7.18L135.35,994a57.74,57.74,0,0,1-30.7,23.39Z" transform="translate(-0.97 -2.5)"/>
      <path class="b" d="M69.83,1017.4A57.73,57.73,0,0,1,38.2,992.58l-25.11,15.48a88.86,88.86,0,0,0,6.61,9.34Z" transform="translate(-0.97 -2.5)"/>
      <path class="b" d="M34.84,1010.88l6-5.54a61.12,61.12,0,0,1-4-4.75,63.4,63.4,0,0,1-8.69-15.76l-7.59,2.89A71.86,71.86,0,0,1,16,959.86l8.1.28a61.48,61.48,0,0,1,1-9.08l-8-1.45c.41-2.27.92-4.53,1.55-6.75l7.79,2.21a64.08,64.08,0,0,1,4.17-10.85l-7.28-3.62a71.78,71.78,0,0,1,8.18-12.93l6.34,5.09a63.39,63.39,0,0,1,11.26-11,62.69,62.69,0,0,1,29.58-12.26l-1.09-8.07q3.23-.44,6.45-.57l.36,8.13a62.82,62.82,0,0,1,11.47.54l1.11-8A71,71,0,0,1,111.35,895l-2.74,7.66a62.86,62.86,0,0,1,29,21.42,63.75,63.75,0,0,1,8.11,14.28l7.52-3.08c.22.56.45,1.13.67,1.7l-7.6,2.89a62.32,62.32,0,0,1,2.19,7.09l7.89-2a71.63,71.63,0,0,1,2,14l-8.1.38a64,64,0,0,1-4.17,25.84l7.56,2.93a71.16,71.16,0,0,1-13,21.5l-6.09-5.39a64,64,0,0,1-9.31,8.65c-.33.26-.67.5-1,.74l2.7,3.74h.78l-2.6-3.6c.17-.12.34-.24.5-.37a64.63,64.63,0,0,0,9-8.27l5.63,5,.47.41.42-.47a71.81,71.81,0,0,0,13.08-21.69l.23-.59-.59-.23-7-2.71A64,64,0,0,0,151,960l7.47-.36.63,0,0-.63a72.74,72.74,0,0,0-2-14.12l-.16-.62-.61.15-7.28,1.83a61.89,61.89,0,0,0-1.84-6l7-2.66.59-.23-.22-.59c-.22-.57-.44-1.15-.68-1.72l-.24-.59-.58.24L146,937.56a64.28,64.28,0,0,0-7.95-13.83,63.48,63.48,0,0,0-28.67-21.42l2.53-7.06.21-.6-.59-.21a71.76,71.76,0,0,0-14.46-3.57l-.63-.09-1.11,8.05A64.66,64.66,0,0,0,85,898.35l-.33-7.5,0-.63-.63,0c-2.18.1-4.36.29-6.5.58l-.63.09.08.63L78,899a63.91,63.91,0,0,0-40.22,22.89l-5.86-4.69-.49-.4-.4.5a72.33,72.33,0,0,0-8.25,13l-.28.57.57.28,6.71,3.34A64.58,64.58,0,0,0,26,944.29l-7.19-2-.61-.18-.17.61c-.63,2.23-1.15,4.52-1.56,6.82l-.12.62.63.12,7.34,1.33a65,65,0,0,0-.84,7.91l-7.47-.26-.63,0,0,.63A71.91,71.91,0,0,0,20,988l.22.59.59-.23,7-2.66A64.27,64.27,0,0,0,36.36,1001c1.11,1.48,2.31,2.93,3.57,4.32l-5.52,5.11-.46.43.42.47a71.26,71.26,0,0,0,6.33,6.09h1A71.23,71.23,0,0,1,34.84,1010.88Z" transform="translate(-0.97 -2.5)"/>
      <path class="b" d="M27.9,1017.4h.86A80.29,80.29,0,1,1,151.15,913.81a80.86,80.86,0,0,1-5.48,103.59h.86a81.5,81.5,0,0,0,5.13-104A80.9,80.9,0,1,0,22.8,1011.27C24.41,1013.42,26.12,1015.46,27.9,1017.4Z" transform="translate(-0.97 -2.5)"/>
      <path class="b" d="M23.93,893.34l-9.7-10.57A107.84,107.84,0,0,0,3.6,894.13l11.12,9.06A95.35,95.35,0,0,1,23.93,893.34Z" transform="translate(-0.97 -2.5)"/>
      <path class="b" d="M45.45,878.43,39,865.56A107.63,107.63,0,0,0,22.23,876l8.65,11.47A94,94,0,0,1,45.45,878.43Z" transform="translate(-0.97 -2.5)"/>
      <path class="b" d="M163.42,885.83a109.56,109.56,0,0,0-15.06-12.6l-8.13,11.86A93.46,93.46,0,0,1,153.29,896Z" transform="translate(-0.97 -2.5)"/>
      <path class="b" d="M177.49,903.24l-12,7.86a94.26,94.26,0,0,1,12,75.37l13.88,3.7a108.47,108.47,0,0,0-13.92-86.93Z" transform="translate(-0.97 -2.5)"/>
      <path class="b" d="M173.18,999.11l13.22,5.65a110.1,110.1,0,0,0,4.27-11.91l-13.78-4.06A93.77,93.77,0,0,1,173.18,999.11Z" transform="translate(-0.97 -2.5)"/>
      <path class="b" d="M167.23,1017.4l-2.94-2c-.47.69-1,1.35-1.46,2Z" transform="translate(-0.97 -2.5)"/>
      <path class="b" d="M87.22,854.1a107.5,107.5,0,0,0-26.59,3.33l3.54,14A93.36,93.36,0,0,1,133,880.57l7-12.55A106.77,106.77,0,0,0,87.22,854.1Z" transform="translate(-0.97 -2.5)"/>
      <path class="b" d="M87.23,864.08c54,0,97.86,44.09,97.86,98.27a98,98,0,0,1-16.83,55h1a98.86,98.86,0,0,0,16.67-55c0-54.64-44.28-99.11-98.7-99.11A98.71,98.71,0,0,0,1,914.26V916A97.91,97.91,0,0,1,87.23,864.08Z" transform="translate(-0.97 -2.5)"/>
      <path class="b" d="M6.22,1017.4A99.07,99.07,0,0,1,1,1008.72v1.73c1.33,2.38,2.75,4.69,4.26,6.95Z" transform="translate(-0.97 -2.5)"/>
      <path class="b" d="M1,876.08v5.35c.87-.92,1.72-1.85,2.61-2.75Z" transform="translate(-0.97 -2.5)"/>
      <path class="b" d="M204.26,927.61a125.14,125.14,0,0,0-8.19-20.73l-3.63,1.85a120.27,120.27,0,0,1,7.95,20Z" transform="translate(-0.97 -2.5)"/>
      <path class="b" d="M187.16,899.37l3.46-2.18a122,122,0,0,0-73.32-53.72l-1,4A117.72,117.72,0,0,1,187.16,899.37Z" transform="translate(-0.97 -2.5)"/>
      <path class="b" d="M40.78,849l1.53,3.75a117.42,117.42,0,0,1,16.14-5.36l-1-3.92A122.66,122.66,0,0,0,40.78,849Z" transform="translate(-0.97 -2.5)"/>
      <path class="b" d="M191.73,1017.4h4.56a122.33,122.33,0,0,0,12.59-64.83l-4,.32a118.93,118.93,0,0,1-13.15,64.51Z" transform="translate(-0.97 -2.5)"/>
      <path class="b" d="M69.06,841.11l.6,4a116.07,116.07,0,0,1,21.63-1.26l.14-4A121.91,121.91,0,0,0,69.06,841.11Z" transform="translate(-0.97 -2.5)"/>
      <path class="b" d="M217.25,962.35a130.27,130.27,0,0,1-12.13,55h1.22a131.4,131.4,0,0,0,12-55c0-72.61-58.82-131.68-131.14-131.68A130.26,130.26,0,0,0,1,863.25v1.49a129.18,129.18,0,0,1,86.25-33C158.92,831.79,217.25,890.36,217.25,962.35Z" transform="translate(-0.97 -2.5)"/>
      <path class="b" d="M236.47,962.35a149.61,149.61,0,0,1-10.43,55h.8a150.47,150.47,0,0,0,10.37-55c0-83-67.28-150.61-150-150.61A148.7,148.7,0,0,0,1,839.21v.9a148,148,0,0,1,86.25-27.63C169.52,812.48,236.47,879.72,236.47,962.35Z" transform="translate(-0.97 -2.5)"/>
      <path class="b" d="M87.22,856.72c58,0,105.2,47.39,105.2,105.63a105.28,105.28,0,0,1-15.45,55H178a106.34,106.34,0,0,0,15.29-55c0-58.74-47.6-106.54-106.11-106.54A105.87,105.87,0,0,0,1,900.43V902A105,105,0,0,1,87.22,856.72Z" transform="translate(-0.97 -2.5)"/>
      <path class="b" d="M20,843l.4.7c65.11-37,148.05-13.86,184.87,51.53l.7-.4C169,829.07,85.54,805.81,20,843Z" transform="translate(-0.97 -2.5)"/>
      <path class="b" d="M85.18,817.68v.85c79-1.12,144.14,62.48,145.26,141.77h.84C230.16,880.53,164.62,816.55,85.18,817.68Z" transform="translate(-0.97 -2.5)"/>
    </g>
    <g>
      <g>
        <polygon class="b" points="205.16 862.86 202.9 860.59 208.92 854.54 429 854.54 429 857.75 210.24 857.75 205.16 862.86"/>
        <polygon class="b" points="231.54 922.41 230.6 918.89 258.51 890.59 353.88 890.59 353.88 893.8 259.84 893.8 231.54 922.41"/>
        <rect class="b" x="236.29" y="956.96" width="306.74" height="3.21"/>
        <polygon class="b" points="302.39 892.83 266.99 857.28 269.25 855.01 304.65 890.56 302.39 892.83"/>
        <polygon class="b" points="244.02 857.28 241.76 855.01 279.66 816.95 327.68 816.95 327.68 820.16 280.98 820.16 244.02 857.28"/>
        <polygon class="b" points="443.76 1004.17 341.88 1004.17 297.6 959.7 299.86 957.43 343.2 1000.96 443.76 1000.96 443.76 1004.17"/>
        <polygon class="b" points="257.65 1014.9 232.8 990.03 232.04 994.16 252.86 1014.9 257.65 1014.9"/>
        <polygon class="b" points="318.04 1014.9 336.43 996.43 334.18 994.16 313.52 1014.9 318.04 1014.9"/>
        <polygon class="b" points="250.58 942.57 248.32 940.3 274.83 913.69 439.64 913.69 439.64 916.89 276.15 916.89 250.58 942.57"/>
        <polygon class="b" points="321.43 959.26 320.24 957.87 350.88 931.49 476.24 931.49 476.24 933.32 351.55 933.32 321.43 959.26"/>
        <polygon class="b" points="486.3 959.26 485.11 957.87 515.75 931.48 641.11 931.48 641.11 933.32 516.42 933.32 486.3 959.26"/>
        <polygon class="b" points="333.49 856.66 332.2 855.36 372.18 815.22 441.48 815.22 441.48 817.05 372.93 817.05 333.49 856.66"/>
        <polygon class="b" points="402.46 816.95 401.17 815.66 441.14 775.51 510.45 775.51 510.45 777.35 441.9 777.35 402.46 816.95"/>
        <polygon class="b" points="510.86 871.43 388.31 871.43 373.74 856.79 375.03 855.5 389.07 869.6 510.86 869.6 510.86 871.43"/>
        <polygon class="b" points="687.88 947.42 565.33 947.42 550.76 932.78 552.05 931.49 566.09 945.59 687.88 945.59 687.88 947.42"/>
        <polygon class="b" points="622.23 886.74 499.68 886.74 485.11 872.1 486.4 870.8 500.44 884.91 622.23 884.91 622.23 886.74"/>
        <polygon class="b" points="371.38 1002.41 370.08 1001.11 394.31 976.78 518.65 976.78 518.65 978.61 395.07 978.61 371.38 1002.41"/>
        <polygon class="b" points="361.83 1014.9 349.47 1002.49 348.18 1003.78 359.25 1014.9 361.83 1014.9"/>
        <polygon class="b" points="646.72 1002.63 500.93 1002.63 476.24 977.85 477.53 976.55 501.68 1000.8 646.72 1000.8 646.72 1002.63"/>
        <polygon class="b" points="248.32 940.3 234.98 940.3 235.06 942.57 250.58 942.57 248.32 940.3"/>
      </g>
      <g>
        <g>
          <path class="b" d="M328.61,827.75a5.12,5.12,0,0,1-5.08-5.2,5,5,0,0,1,5.08-5.12,5.13,5.13,0,0,1,5.17,5.12A5.19,5.19,0,0,1,328.61,827.75Z" transform="translate(-0.97 -2.5)"/>
          <path class="b" d="M328.66,810.4a12.19,12.19,0,1,1-12.13,12.19A12.2,12.2,0,0,1,328.66,810.4Zm0,2.1a10.13,10.13,0,1,0,10,10.09A10.06,10.06,0,0,0,328.66,812.5Z" transform="translate(-0.97 -2.5)"/>
        </g>
        <g>
          <path class="b" d="M354.13,900.49A5.13,5.13,0,0,1,349,895.3a5,5,0,0,1,5.09-5.12,5.11,5.11,0,0,1,5.16,5.12A5.18,5.18,0,0,1,354.13,900.49Z" transform="translate(-0.97 -2.5)"/>
          <path class="b" d="M354.17,883.14a12.19,12.19,0,1,1-12.12,12.19A12.2,12.2,0,0,1,354.17,883.14Zm0,2.1a10.13,10.13,0,1,0,10,10.09A10.06,10.06,0,0,0,354.17,885.24Z" transform="translate(-0.97 -2.5)"/>
        </g>
        <g>
          <path class="b" d="M444.7,1010.45a5.12,5.12,0,0,1-5.09-5.19,5,5,0,0,1,5.09-5.13,5.13,5.13,0,0,1,5.16,5.13A5.19,5.19,0,0,1,444.7,1010.45Z" transform="translate(-0.97 -2.5)"/>
          <path class="b" d="M443.37,1017.4h2.74a12.13,12.13,0,1,0-2.74,0Zm1.37-22.2a10.13,10.13,0,1,1-10,10.09A10.1,10.1,0,0,1,444.74,995.2Z" transform="translate(-0.97 -2.5)"/>
        </g>
        <g>
          <path class="b" d="M688.81,953a5.13,5.13,0,0,1-5.09-5.19,5,5,0,0,1,5.09-5.12,5.12,5.12,0,0,1,5.16,5.12A5.18,5.18,0,0,1,688.81,953Z" transform="translate(-0.97 -2.5)"/>
          <path class="b" d="M688.85,935.68a12.19,12.19,0,1,1-12.12,12.19A12.2,12.2,0,0,1,688.85,935.68Zm0,2.11a10.13,10.13,0,1,0,10,10.08A10.05,10.05,0,0,0,688.85,937.79Z" transform="translate(-0.97 -2.5)"/>
        </g>
        <g>
          <path class="b" d="M544,964.62a5.13,5.13,0,0,1-5.09-5.19,5,5,0,0,1,5.09-5.12,5.11,5.11,0,0,1,5.16,5.12A5.18,5.18,0,0,1,544,964.62Z" transform="translate(-0.97 -2.5)"/>
          <path class="b" d="M544,947.27a12.19,12.19,0,1,1-12.12,12.19A12.2,12.2,0,0,1,544,947.27Zm0,2.1a10.13,10.13,0,1,0,10,10.09A10.07,10.07,0,0,0,544,949.37Z" transform="translate(-0.97 -2.5)"/>
        </g>
        <g>
          <path class="b" d="M440.58,924.87a5.12,5.12,0,0,1-5.09-5.19,5,5,0,0,1,5.09-5.12,5.13,5.13,0,0,1,5.16,5.12A5.19,5.19,0,0,1,440.58,924.87Z" transform="translate(-0.97 -2.5)"/>
          <path class="b" d="M440.62,907.52a12.19,12.19,0,1,1-12.13,12.19A12.2,12.2,0,0,1,440.62,907.52Zm0,2.11a10.13,10.13,0,1,0,10,10.08A10.06,10.06,0,0,0,440.62,909.63Z" transform="translate(-0.97 -2.5)"/>
        </g>
        <g>
          <path class="b" d="M477.18,939.14a5.12,5.12,0,0,1-5.09-5.19,5,5,0,0,1,5.09-5.12,5.13,5.13,0,0,1,5.16,5.12A5.19,5.19,0,0,1,477.18,939.14Z" transform="translate(-0.97 -2.5)"/>
          <path class="b" d="M477.22,921.79A12.2,12.2,0,1,1,465.09,934,12.2,12.2,0,0,1,477.22,921.79Zm0,2.11a10.13,10.13,0,1,0,10,10.08A10.06,10.06,0,0,0,477.22,923.9Z" transform="translate(-0.97 -2.5)"/>
        </g>
        <g>
          <path class="b" d="M511.79,879.09a5.13,5.13,0,0,1-5.09-5.2,5,5,0,0,1,5.09-5.12,5.12,5.12,0,0,1,5.16,5.12A5.18,5.18,0,0,1,511.79,879.09Z" transform="translate(-0.97 -2.5)"/>
          <path class="b" d="M511.83,861.74a12.19,12.19,0,1,1-12.12,12.19A12.2,12.2,0,0,1,511.83,861.74Zm0,2.1a10.13,10.13,0,1,0,10,10.09A10.06,10.06,0,0,0,511.83,863.84Z" transform="translate(-0.97 -2.5)"/>
        </g>
        <g>
          <path class="b" d="M429.94,863.15a5.12,5.12,0,0,1-5.09-5.19,5,5,0,0,1,5.09-5.12A5.13,5.13,0,0,1,435.1,858,5.19,5.19,0,0,1,429.94,863.15Z" transform="translate(-0.97 -2.5)"/>
          <path class="b" d="M430,845.8A12.2,12.2,0,1,1,417.85,858,12.2,12.2,0,0,1,430,845.8Zm0,2.11A10.13,10.13,0,1,0,440,858,10.05,10.05,0,0,0,430,847.91Z" transform="translate(-0.97 -2.5)"/>
        </g>
        <g>
          <path class="b" d="M442.41,823.83a5.13,5.13,0,0,1-5.09-5.19,5,5,0,0,1,5.09-5.12,5.13,5.13,0,0,1,5.17,5.12A5.19,5.19,0,0,1,442.41,823.83Z" transform="translate(-0.97 -2.5)"/>
          <path class="b" d="M442.46,806.48a12.19,12.19,0,1,1-12.13,12.19A12.2,12.2,0,0,1,442.46,806.48Zm0,2.1a10.13,10.13,0,1,0,10,10.09A10.06,10.06,0,0,0,442.46,808.58Z" transform="translate(-0.97 -2.5)"/>
        </g>
      </g>
    </g>
  </g>
  <g>
    <g>
      <path class="b" d="M1800.75,875a.23.23,0,0,1-.16-.08l-53.31-60.45a.46.46,0,0,1-.08-.38.26.26,0,0,1,.23-.23h56.65a.22.22,0,0,1,.18.11.44.44,0,0,1,.07.26L1801,874.69a.34.34,0,0,1-.14.29Zm-52.63-60.45L1800.54,874l3.28-59.43Z" transform="translate(-0.97 -2.5)"/>
      <path class="b" d="M1747.43,814.56a.18.18,0,0,1-.13-.06l-110-102.3a.4.4,0,0,1-.11-.33.39.39,0,0,1,.17-.29L1794,641.84a.2.2,0,0,1,.25.09.41.41,0,0,1,0,.36l-46.65,172a.27.27,0,0,1-.15.21ZM1638,712l109.28,101.67,46.37-171Z" transform="translate(-0.97 -2.5)"/>
      <path class="b" d="M1794.08,642.51a.26.26,0,0,1-.22-.18.45.45,0,0,1,.08-.44l103.3-106.95a.18.18,0,0,1,.25,0,.35.35,0,0,1,.14.3V591a.35.35,0,0,1-.16.32l-103.3,51.15A.15.15,0,0,1,1794.08,642.51ZM1897.14,535.9,1795.55,641.08l101.59-50.3Z" transform="translate(-0.97 -2.5)"/>
      <path class="b" d="M2087.32,982h0a.32.32,0,0,1-.24-.31l-20-274.35a.36.36,0,0,1,.13-.33.19.19,0,0,1,.27,0l56.65,60.45a.48.48,0,0,1,.09.36l-36.66,213.89C2087.53,981.85,2087.44,982,2087.32,982ZM2067.63,708l19.79,271.55,36.28-211.72Z" transform="translate(-0.97 -2.5)"/>
      <path class="b" d="M1897.39,591.36a.24.24,0,0,1-.18-.1.38.38,0,0,1-.07-.24V535.21a.37.37,0,0,1,.09-.25.18.18,0,0,1,.2-.08L2114,586a.34.34,0,0,1,.21.36c0,.18-.12.32-.25.32l-216.59,4.65Zm.24-55.74v55l213.67-4.59Z" transform="translate(-0.97 -2.5)"/>
      <path class="b" d="M2067.33,707.61a.23.23,0,0,1-.11,0L1897.27,591.32a.4.4,0,0,1-.13-.38c0-.16.13-.27.24-.27L2114,586h0c.09,0,.16.06.21.17a.44.44,0,0,1,0,.34l-46.66,120.9A.24.24,0,0,1,2067.33,707.61ZM1898.41,591.34l168.81,115.47,46.34-120.09Z" transform="translate(-0.97 -2.5)"/>
      <path class="b" d="M1915.75,1016.39h1l-88.21-71.47,258.4,37-14.12,34.49h.57l14.16-34.6a.42.42,0,0,0,0-.33.28.28,0,0,0-.19-.19l-259.92-37.2c-.11,0-.22.08-.26.23a.44.44,0,0,0,.11.41Z" transform="translate(-0.97 -2.5)"/>
      <path class="b" d="M2152,747.78,2124.39,767,2152,648v-2.24l-28.25,121.84a.44.44,0,0,0,.08.37.21.21,0,0,0,.16.08.19.19,0,0,0,.11,0l27.9-19.47Z" transform="translate(-0.97 -2.5)"/>
      <path class="b" d="M2152,796.09l-27.54-28.32L2152,748.55v-.76l-28.12,19.62a.36.36,0,0,0-.14.28.39.39,0,0,0,.1.3l28.16,29Z" transform="translate(-0.97 -2.5)"/>
      <path class="b" d="M1462.67,1016.39l-4.84-57.4,74,57.4h1l-75.23-58.33a.19.19,0,0,0-.26,0,.39.39,0,0,0-.11.33l4.89,58Z" transform="translate(-0.97 -2.5)"/>
      <path class="b" d="M1531.87,1016.39h1l-74.12-57.47,78.54,13.71,7.84,43.76h.51l-7.91-44.16c0-.14-.11-.24-.21-.25l-80-14c-.13,0-.23.08-.27.24a.43.43,0,0,0,.12.41Z" transform="translate(-0.97 -2.5)"/>
      <path class="b" d="M1747.43,814.56l-.08,0-100-51.15a.32.32,0,0,1-.15-.24l-10-51.15a.41.41,0,0,1,.09-.36.2.2,0,0,1,.29,0l109.92,102.26a.36.36,0,0,1,.16.32c0,.19-.11.35-.25.35Zm-99.76-51.76,97.9,50.1L1637.88,712.71Z" transform="translate(-0.97 -2.5)"/>
      <path class="b" d="M1537.5,972.66h0l-80-13.94a.27.27,0,0,1-.18-.17.47.47,0,0,1,0-.29l50-200c0-.14.14-.25.25-.23a.31.31,0,0,1,.22.28l30,213.9a.43.43,0,0,1-.06.3A.22.22,0,0,1,1537.5,972.66Zm-79.64-14.58,79.33,13.84-29.75-212.2Z" transform="translate(-0.97 -2.5)"/>
      <path class="b" d="M1537.5,972.66h0a.32.32,0,0,1-.19-.27l-30-213.9a.38.38,0,0,1,0-.28.25.25,0,0,1,.2-.13l140,4.65a.28.28,0,0,1,.22.2.43.43,0,0,1,0,.35l-110,209.25A.23.23,0,0,1,1537.5,972.66Zm-29.69-213.89,29.82,212.71L1647,763.39Z" transform="translate(-0.97 -2.5)"/>
      <path class="b" d="M1647.48,763.41h0l-140-4.65c-.12,0-.22-.14-.23-.31a.35.35,0,0,1,.18-.37l130-46.5c.13-.05.26.07.29.24l10,51.06a.37.37,0,0,1,0,.18C1647.72,763.25,1647.61,763.41,1647.48,763.41Zm-138.19-5.28,137.85,4.58-9.85-50.37Z" transform="translate(-0.97 -2.5)"/>
      <path class="b" d="M1810.47,1016.39l17.07-71.46,88.21,71.46h1l-89.2-72.28a.2.2,0,0,0-.21,0,.33.33,0,0,0-.15.21L1810,1016.39Z" transform="translate(-0.97 -2.5)"/>
      <path class="b" d="M1745.34,1016.39,1827,945.21l-17,71.18h.51l17.17-71.87a.46.46,0,0,0-.08-.38.19.19,0,0,0-.28,0l-82.87,72.27Z" transform="translate(-0.97 -2.5)"/>
      <path class="b" d="M1714.11,930.81a.21.21,0,0,1-.17-.1.43.43,0,0,1-.06-.37l33.32-116.26a.29.29,0,0,1,.17-.2.19.19,0,0,1,.22.07l53.31,60.45a.4.4,0,0,1,.09.31.34.34,0,0,1-.14.27l-86.64,55.8A.19.19,0,0,1,1714.11,930.81Zm33.43-116-33,115,85.72-55.21Z" transform="translate(-0.97 -2.5)"/>
      <path class="b" d="M1827.41,944.76h0l-113.3-14a.3.3,0,0,1-.22-.28.41.41,0,0,1,.14-.38l86.63-55.79c.12-.08.26,0,.33.15l26.62,69.66a.38.38,0,0,1,.07.24.35.35,0,0,1-.25.35Zm-112.36-14.52L1827,944l-26.34-68.89Z" transform="translate(-0.97 -2.5)"/>
      <path class="b" d="M1545.65,1016.39l-7.85-43.8,174.25-41.29-145.18,85.09h1.26l146.08-85.61a.41.41,0,0,0,.14-.41c0-.17-.15-.26-.28-.24L1537.46,972a.22.22,0,0,0-.16.15.41.41,0,0,0,0,.27l7.88,44Z" transform="translate(-0.97 -2.5)"/>
      <path class="b" d="M1537.5,972.66a.25.25,0,0,1-.21-.16.48.48,0,0,1,0-.39l110-209.25a.2.2,0,0,1,.21-.13.23.23,0,0,1,.2.17l66.65,167.4a.47.47,0,0,1,0,.31.25.25,0,0,1-.18.19l-176.61,41.85Zm109.94-209L1538.06,971.84l175.67-41.63Z" transform="translate(-0.97 -2.5)"/>
      <path class="b" d="M1568.13,1016.39,1713.89,931l5.33,85.43h.49l-5.35-85.95a.45.45,0,0,0-.12-.27.18.18,0,0,0-.22,0l-147.16,86.24Z" transform="translate(-0.97 -2.5)"/>
      <path class="b" d="M1714.11,930.81a.26.26,0,0,1-.22-.18l-66.64-167.4a.45.45,0,0,1,0-.39.21.21,0,0,1,.27-.1l100,51.15a.32.32,0,0,1,.14.19.57.57,0,0,1,0,.26l-33.32,116.25a.29.29,0,0,1-.22.22ZM1648,763.71l66.07,166,33-115.25Z" transform="translate(-0.97 -2.5)"/>
      <path class="b" d="M1719.71,1016.39l-5.33-85.55,112.27,13.82-82.24,71.73h.93l82.2-71.69a.39.39,0,0,0,.1-.37.28.28,0,0,0-.21-.26l-113.3-13.94a.25.25,0,0,0-.2.09.51.51,0,0,0-.07.28l5.36,85.89Z" transform="translate(-0.97 -2.5)"/>
      <path class="b" d="M1457.53,958.71a.24.24,0,0,1-.21-.16l-30-65.1a.46.46,0,0,1,0-.41l80-134.84c.08-.13.2-.17.31-.08a.41.41,0,0,1,.11.41l-50,200a.29.29,0,0,1-.21.23Zm-29.69-65.42,29.62,64.3,49.37-197.48Z" transform="translate(-0.97 -2.5)"/>
      <path class="b" d="M2067.33,707.61a.19.19,0,0,1-.15-.07.43.43,0,0,1-.07-.44l46.66-120.89a.24.24,0,0,1,.15-.17.16.16,0,0,1,.19,0l26.66,23.24a.45.45,0,0,1,.12.26.49.49,0,0,1-.08.28l-73.31,97.65A.21.21,0,0,1,2067.33,707.61Zm46.74-120.76-45.79,118.68,72-95.86Z" transform="translate(-0.97 -2.5)"/>
      <path class="b" d="M2124,768.06a.23.23,0,0,1-.15-.07l-56.65-60.45a.41.41,0,0,1-.1-.26.5.5,0,0,1,.08-.27l73.31-97.64a.19.19,0,0,1,.28-.06.37.37,0,0,1,.13.36l-16.66,158.09a.33.33,0,0,1-.15.27Zm-56.27-60.82,56.09,59.85,16.49-156.54Z" transform="translate(-0.97 -2.5)"/>
      <path class="b" d="M2152,609.27h-11.28L2116,587.75,2152,605.68v-.74L2114.06,586c-.11,0-.24,0-.3.17a.43.43,0,0,0,.09.45l26.66,23.25a.21.21,0,0,0,.13.05H2152Z" transform="translate(-0.97 -2.5)"/>
      <path class="b" d="M2152,645.77l-27.34,117.94L2140.85,610H2152v-.69h-11.35a.29.29,0,0,0-.24.3l-16.67,158.1a.36.36,0,0,0,.19.38h.06a.26.26,0,0,0,.23-.24L2152,648Z" transform="translate(-0.97 -2.5)"/>
      <path class="b" d="M2152,605l-37.54-18.72,37.54-48v-.93l-38.17,48.83a.4.4,0,0,0-.08.33.35.35,0,0,0,.16.25l38.09,19Z" transform="translate(-0.97 -2.5)"/>
      <path class="b" d="M1907.38,786.66a.22.22,0,0,1-.17-.09L1793.92,642.42a.39.39,0,0,1-.07-.32.32.32,0,0,1,.15-.26l103.3-51.14a.17.17,0,0,1,.22,0,.42.42,0,0,1,.11.26l10,195.19a.68.68,0,0,1,0,.14c0,.19-.11.34-.25.34ZM1794.55,642.3l112.54,143.18-9.93-194Z" transform="translate(-0.97 -2.5)"/>
      <path class="b" d="M1827.41,944.76h0a.27.27,0,0,1-.2-.19l-26.66-69.74a.44.44,0,0,1,.09-.46L1907.26,786a.19.19,0,0,1,.3.06.44.44,0,0,1,0,.43l-80,158.11A.27.27,0,0,1,1827.41,944.76Zm-26.34-70,26.37,69,79.07-156.33Z" transform="translate(-0.97 -2.5)"/>
      <path class="b" d="M2087.32,982h0l-259.92-37.2a.32.32,0,0,1-.2-.21.53.53,0,0,1,0-.33l80-158.11c0-.07.1-.13.16-.13a.17.17,0,0,1,.19.07l179.94,195.3a.43.43,0,0,1,.08.4A.26.26,0,0,1,2087.32,982Zm-259.47-37.83,258.64,37L1907.43,786.81Z" transform="translate(-0.97 -2.5)"/>
      <path class="b" d="M1907.38,786.66a.16.16,0,0,1-.13-.06.38.38,0,0,1-.12-.26l-10-195.3a.37.37,0,0,1,.11-.31.18.18,0,0,1,.24,0l170,116.25a.4.4,0,0,1,.14.32.37.37,0,0,1-.17.31l-159.95,79Zm-9.72-195.07,9.94,194.25,159.1-78.62Z" transform="translate(-0.97 -2.5)"/>
      <path class="b" d="M2087.32,982a.21.21,0,0,1-.15-.07l-179.94-195.3a.42.42,0,0,1-.09-.33.31.31,0,0,1,.16-.27l160-79a.2.2,0,0,1,.21,0,.39.39,0,0,1,.11.26l20,274.25a.52.52,0,0,1,0,.14c0,.19-.11.34-.24.34ZM1907.89,786.43,2087,980.85l-19.9-273.11Z" transform="translate(-0.97 -2.5)"/>
      <path class="b" d="M1897.39,535.56a.21.21,0,0,1-.13,0,.4.4,0,0,1-.1-.43l76.64-260.39a.29.29,0,0,1,.17-.21.22.22,0,0,1,.22.08l40,51.15a.45.45,0,0,1,0,.46L1897.58,535.43A.22.22,0,0,1,1897.39,535.56Zm76.73-260.16L1898.3,533l115.38-207Z" transform="translate(-0.97 -2.5)"/>
      <path class="b" d="M2114,586.71h0l-216.6-51.15a.31.31,0,0,1-.19-.22.5.5,0,0,1,0-.34l116.63-209.24c0-.1.12-.15.21-.13a.23.23,0,0,1,.2.17l100,260.41a.43.43,0,0,1,0,.35A.23.23,0,0,1,2114,586.71ZM1897.83,535l215.69,50.93L2014,326.59Z" transform="translate(-0.97 -2.5)"/>
      <path class="b" d="M1747.43,814.56a.22.22,0,0,1-.19-.14.41.41,0,0,1,0-.33l46.65-172c0-.15.14-.26.26-.23a.3.3,0,0,1,.21.29l20,162.75a.42.42,0,0,1,0,.27.21.21,0,0,1-.17.12l-66.64,9.31ZM1794,643.47l-46.2,170.35,66-9.21Z" transform="translate(-0.97 -2.5)"/>
      <path class="b" d="M1804.08,814.56h-56.65c-.13,0-.24-.14-.24-.33a.33.33,0,0,1,.22-.36l66.64-9.29c.12,0,.22.07.26.22a.4.4,0,0,1-.1.4l-10,9.3A.22.22,0,0,1,1804.08,814.56Zm-51.71-.69H1804l9.11-8.47Z" transform="translate(-0.97 -2.5)"/>
      <path class="b" d="M1814.08,805.26c-.12,0-.22-.11-.24-.28l-20-162.76a.39.39,0,0,1,.12-.36.2.2,0,0,1,.28,0l113.3,144.15a.48.48,0,0,1,.06.36.26.26,0,0,1-.19.23l-93.31,18.6Zm-19.63-162.17,19.83,161.44,92.55-18.45Z" transform="translate(-0.97 -2.5)"/>
      <path class="b" d="M1800.75,875h0a.34.34,0,0,1-.21-.37l3.34-60.45a.33.33,0,0,1,.11-.26l10-9.3a.2.2,0,0,1,.28,0,.41.41,0,0,1,.1.36L1801,874.76A.28.28,0,0,1,1800.75,875Zm3.57-60.6L1801.2,871l12.47-65.27Z" transform="translate(-0.97 -2.5)"/>
      <path class="b" d="M1800.75,875a.19.19,0,0,1-.15-.07.44.44,0,0,1-.09-.36l13.33-69.75c0-.14.1-.23.2-.25l93.31-18.6c.11,0,.23.07.26.22a.43.43,0,0,1-.1.41L1800.88,875A.18.18,0,0,1,1800.75,875Zm13.52-69.78-13.13,68.71,105-87Z" transform="translate(-0.97 -2.5)"/>
      <path class="b" d="M2152,89.21,2010.11,38.3l141.88,15v-.68L2007.37,37.33c-.13,0-.25.11-.26.28a.35.35,0,0,0,.18.39L2152,89.92Z" transform="translate(-0.97 -2.5)"/>
      <path class="b" d="M2152,52.65l-141.82-15L2152,18v-.7l-144.67,20c-.12,0-.22.16-.22.34s.1.33.23.34L2152,53.34Z" transform="translate(-0.97 -2.5)"/>
      <path class="b" d="M2152,17.31l-35.47,4.9L2152,17.08v-.69L2007.32,37.33h0a.32.32,0,0,0-.21.37.29.29,0,0,0,.24.31h0L2152,18Z" transform="translate(-0.97 -2.5)"/>
      <path class="b" d="M2152,238.42l-177.66,36,33.18-236.12L2152,201.14v-.89L2007.5,37.4a.19.19,0,0,0-.24-.06.33.33,0,0,0-.15.26l-33.33,237.15a.44.44,0,0,0,.07.3.22.22,0,0,0,.18.11h0l177.93-36Z" transform="translate(-0.97 -2.5)"/>
      <path class="b" d="M2152,248.58l-137.92,77-39.5-50.52L2152,239.11v-.69l-178,36.06a.3.3,0,0,0-.2.24.43.43,0,0,0,.07.35l40,51.15a.22.22,0,0,0,.17.09.16.16,0,0,0,.09,0l137.89-77Z" transform="translate(-0.97 -2.5)"/>
      <path class="b" d="M2152,200.25,2008.38,38.39,2152,89.92v-.7L2007.41,37.34c-.12,0-.23,0-.28.18a.45.45,0,0,0,.06.41L2152,201.13Z" transform="translate(-0.97 -2.5)"/>
      <path class="b" d="M2152,383.47l-38.09,202-99.54-259.3L2152,249.32v-.74l-138.07,77.07a.34.34,0,0,0-.14.2.45.45,0,0,0,0,.28l100,260.4a.26.26,0,0,0,.22.18h0a.31.31,0,0,0,.21-.26L2152,386.17Z" transform="translate(-0.97 -2.5)"/>
      <path class="b" d="M2152,537.28l-37.56,48L2152,386.16v-2.69l-38.25,202.81a.44.44,0,0,0,.11.38.24.24,0,0,0,.13.05.19.19,0,0,0,.16-.09L2152,538.21Z" transform="translate(-0.97 -2.5)"/>
      <path class="b" d="M1458.14,1016.39l-.33-51.69,4.36,51.69h.5l-4.9-58.07c0-.18-.11-.3-.26-.3a.32.32,0,0,0-.23.35l.36,58Z" transform="translate(-0.97 -2.5)"/>
      <path class="b" d="M1434.68,1016.39l-6.82-121.79,29.42,63.87.36,57.92h.5l-.37-58a.37.37,0,0,0,0-.18l-30-65.1c-.06-.13-.18-.2-.28-.14a.36.36,0,0,0-.17.35l6.89,123.1Z" transform="translate(-0.97 -2.5)"/>
      <path class="b" d="M2152,997.38l-64.37-16L2124,769l28,117.1V883.9l-27.78-116.29a.27.27,0,0,0-.24-.24.29.29,0,0,0-.23.27l-36.66,213.9a.45.45,0,0,0,0,.26.28.28,0,0,0,.16.16L2152,998.08Z" transform="translate(-0.97 -2.5)"/>
      <path class="b" d="M2152,883.9l-27.53-115.26,27.53,28.3v-.85l-27.86-28.65a.2.2,0,0,0-.3,0,.45.45,0,0,0-.09.38L2152,886.07Z" transform="translate(-0.97 -2.5)"/>
      <path class="b" d="M2073.36,1016.39l14-34.23,26.22,34.23h.72l-26.83-35c-.06-.08-.13-.12-.2-.1a.3.3,0,0,0-.18.17l-14.31,34.95Z" transform="translate(-0.97 -2.5)"/>
      <path class="b" d="M2113.6,1016.39h.72l-26.22-34.23L2152,998.08v-.7l-64.62-16.1a.24.24,0,0,0-.27.18.46.46,0,0,0,.06.41Z" transform="translate(-0.97 -2.5)"/>
    </g>
    <path class="b" d="M1800.14,814.21c0,3,1.77,5.5,3.94,5.5s3.94-2.46,3.94-5.5-1.77-5.49-3.94-5.49S1800.14,811.18,1800.14,814.21Z" transform="translate(-0.97 -2.5)"/>
    <path class="b" d="M1796.81,874.66c0,3,1.76,5.5,3.94,5.5s3.93-2.46,3.93-5.5-1.76-5.49-3.93-5.49S1796.81,871.63,1796.81,874.66Z" transform="translate(-0.97 -2.5)"/>
    <path class="b" d="M1743.5,814.21c0,3,1.76,5.5,3.93,5.5s3.94-2.46,3.94-5.5-1.76-5.49-3.94-5.49S1743.5,811.18,1743.5,814.21Z" transform="translate(-0.97 -2.5)"/>
    <path class="b" d="M1790.15,642.17c0,3,1.76,5.49,3.93,5.49s3.94-2.46,3.94-5.49-1.76-5.5-3.94-5.5S1790.15,639.13,1790.15,642.17Z" transform="translate(-0.97 -2.5)"/>
    <path class="b" d="M1893.45,535.21c0,3,1.76,5.5,3.94,5.5s3.93-2.46,3.93-5.5-1.76-5.49-3.93-5.49S1893.45,532.18,1893.45,535.21Z" transform="translate(-0.97 -2.5)"/>
    <path class="b" d="M1790.15,642.17c0,3,1.76,5.49,3.93,5.49s3.94-2.46,3.94-5.49-1.76-5.5-3.94-5.5S1790.15,639.13,1790.15,642.17Z" transform="translate(-0.97 -2.5)"/>
    <path class="b" d="M1743.5,814.21c0,3,1.76,5.5,3.93,5.5s3.94-2.46,3.94-5.5-1.76-5.49-3.94-5.49S1743.5,811.18,1743.5,814.21Z" transform="translate(-0.97 -2.5)"/>
    <path class="b" d="M1633.53,711.92c0,3,1.76,5.49,3.94,5.49s3.93-2.46,3.93-5.49-1.76-5.49-3.93-5.49S1633.53,708.88,1633.53,711.92Z" transform="translate(-0.97 -2.5)"/>
    <path class="b" d="M1790.15,642.17c0,3,1.76,5.49,3.93,5.49s3.94-2.46,3.94-5.49-1.76-5.5-3.94-5.5S1790.15,639.13,1790.15,642.17Z" transform="translate(-0.97 -2.5)"/>
    <path class="b" d="M1633.53,711.92c0,3,1.76,5.49,3.94,5.49s3.93-2.46,3.93-5.49-1.76-5.49-3.93-5.49S1633.53,708.88,1633.53,711.92Z" transform="translate(-0.97 -2.5)"/>
    <path class="b" d="M1790.15,642.17c0,3,1.76,5.49,3.93,5.49s3.94-2.46,3.94-5.49-1.76-5.5-3.94-5.5S1790.15,639.13,1790.15,642.17Z" transform="translate(-0.97 -2.5)"/>
    <path class="b" d="M1893.45,591c0,3,1.76,5.49,3.94,5.49s3.93-2.46,3.93-5.49-1.76-5.5-3.93-5.5S1893.45,588,1893.45,591Z" transform="translate(-0.97 -2.5)"/>
    <path class="b" d="M1893.45,535.21c0,3,1.76,5.5,3.94,5.5s3.93-2.46,3.93-5.5-1.76-5.49-3.93-5.49S1893.45,532.18,1893.45,535.21Z" transform="translate(-0.97 -2.5)"/>
    <path class="b" d="M1790.15,642.17c0,3,1.76,5.49,3.93,5.49s3.94-2.46,3.94-5.49-1.76-5.5-3.94-5.5S1790.15,639.13,1790.15,642.17Z" transform="translate(-0.97 -2.5)"/>
    <path class="b" d="M2003.41,37.67c0,3,1.77,5.49,3.94,5.49s3.94-2.46,3.94-5.49-1.77-5.49-3.94-5.49S2003.41,34.63,2003.41,37.67Z" transform="translate(-0.97 -2.5)"/>
    <path class="b" d="M2063.39,707.26c0,3,1.77,5.5,3.94,5.5s3.93-2.46,3.93-5.5-1.76-5.49-3.93-5.49S2063.39,704.23,2063.39,707.26Z" transform="translate(-0.97 -2.5)"/>
    <path class="b" d="M2120,767.72c0,3,1.76,5.49,3.94,5.49s3.93-2.46,3.93-5.49-1.76-5.5-3.93-5.5S2120,764.68,2120,767.72Z" transform="translate(-0.97 -2.5)"/>
    <path class="b" d="M2083.39,981.62c0,3,1.76,5.49,3.93,5.49s3.94-2.46,3.94-5.49-1.76-5.5-3.94-5.5S2083.39,978.58,2083.39,981.62Z" transform="translate(-0.97 -2.5)"/>
    <path class="b" d="M2110.05,586.37c0,3,1.76,5.49,3.93,5.49s3.93-2.46,3.93-5.49-1.75-5.5-3.93-5.5S2110.05,583.33,2110.05,586.37Z" transform="translate(-0.97 -2.5)"/>
    <path class="b" d="M1893.45,535.21c0,3,1.76,5.5,3.94,5.5s3.93-2.46,3.93-5.5-1.76-5.49-3.93-5.49S1893.45,532.18,1893.45,535.21Z" transform="translate(-0.97 -2.5)"/>
    <path class="b" d="M1893.45,591c0,3,1.76,5.49,3.94,5.49s3.93-2.46,3.93-5.49-1.76-5.5-3.93-5.5S1893.45,588,1893.45,591Z" transform="translate(-0.97 -2.5)"/>
    <path class="b" d="M2110.05,586.37c0,3,1.76,5.49,3.93,5.49s3.93-2.46,3.93-5.49-1.75-5.5-3.93-5.5S2110.05,583.33,2110.05,586.37Z" transform="translate(-0.97 -2.5)"/>
    <path class="b" d="M2063.39,707.26c0,3,1.77,5.5,3.94,5.5s3.93-2.46,3.93-5.5-1.76-5.49-3.93-5.49S2063.39,704.23,2063.39,707.26Z" transform="translate(-0.97 -2.5)"/>
    <path class="b" d="M1893.45,591c0,3,1.76,5.49,3.94,5.49s3.93-2.46,3.93-5.49-1.76-5.5-3.93-5.5S1893.45,588,1893.45,591Z" transform="translate(-0.97 -2.5)"/>
    <path class="b" d="M1970.09,274.82c0,3,1.76,5.49,3.94,5.49s3.93-2.46,3.93-5.49-1.76-5.49-3.93-5.49S1970.09,271.78,1970.09,274.82Z" transform="translate(-0.97 -2.5)"/>
    <path class="b" d="M1893.45,535.21c0,3,1.76,5.5,3.94,5.5s3.93-2.46,3.93-5.5-1.76-5.49-3.93-5.49S1893.45,532.18,1893.45,535.21Z" transform="translate(-0.97 -2.5)"/>
    <path class="b" d="M1823.47,944.41c0,3,1.76,5.49,3.94,5.49s3.93-2.45,3.93-5.49-1.76-5.49-3.93-5.49S1823.47,941.38,1823.47,944.41Z" transform="translate(-0.97 -2.5)"/>
    <path class="b" d="M2083.39,981.62c0,3,1.76,5.49,3.93,5.49s3.94-2.46,3.94-5.49-1.76-5.5-3.94-5.5S2083.39,978.58,2083.39,981.62Z" transform="translate(-0.97 -2.5)"/>
    <path class="b" d="M1970.09,274.82c0,3,1.76,5.49,3.94,5.49s3.93-2.46,3.93-5.49-1.76-5.49-3.93-5.49S1970.09,271.78,1970.09,274.82Z" transform="translate(-0.97 -2.5)"/>
    <path class="b" d="M2120,767.72c0,3,1.76,5.49,3.94,5.49s3.93-2.46,3.93-5.49-1.76-5.5-3.93-5.5S2120,764.68,2120,767.72Z" transform="translate(-0.97 -2.5)"/>
    <path class="b" d="M2120,767.72c0,3,1.76,5.49,3.94,5.49s3.93-2.46,3.93-5.49-1.76-5.5-3.93-5.5S2120,764.68,2120,767.72Z" transform="translate(-0.97 -2.5)"/>
    <path class="b" d="M1453.59,958.36c0,3,1.76,5.5,3.94,5.5s3.93-2.46,3.93-5.5-1.76-5.49-3.93-5.49S1453.59,955.33,1453.59,958.36Z" transform="translate(-0.97 -2.5)"/>
    <path class="b" d="M1533.56,972.32c0,3,1.77,5.49,3.94,5.49s3.94-2.47,3.94-5.49-1.77-5.5-3.94-5.5S1533.56,969.28,1533.56,972.32Z" transform="translate(-0.97 -2.5)"/>
    <path class="b" d="M1453.59,958.36c0,3,1.76,5.5,3.94,5.5s3.93-2.46,3.93-5.5-1.76-5.49-3.93-5.49S1453.59,955.33,1453.59,958.36Z" transform="translate(-0.97 -2.5)"/>
    <path class="b" d="M1643.53,763.06c0,3,1.76,5.49,3.94,5.49s3.93-2.45,3.93-5.49-1.76-5.49-3.93-5.49S1643.53,760,1643.53,763.06Z" transform="translate(-0.97 -2.5)"/>
    <path class="b" d="M1743.5,814.21c0,3,1.76,5.5,3.93,5.5s3.94-2.46,3.94-5.5-1.76-5.49-3.94-5.49S1743.5,811.18,1743.5,814.21Z" transform="translate(-0.97 -2.5)"/>
    <path class="b" d="M1633.53,711.92c0,3,1.76,5.49,3.94,5.49s3.93-2.46,3.93-5.49-1.76-5.49-3.93-5.49S1633.53,708.88,1633.53,711.92Z" transform="translate(-0.97 -2.5)"/>
    <path class="b" d="M2003.41,37.67c0,3,1.77,5.49,3.94,5.49s3.94-2.46,3.94-5.49-1.77-5.49-3.94-5.49S2003.41,34.63,2003.41,37.67Z" transform="translate(-0.97 -2.5)"/>
    <path class="b" d="M1970.09,274.82c0,3,1.76,5.49,3.94,5.49s3.93-2.46,3.93-5.49-1.76-5.49-3.93-5.49S1970.09,271.78,1970.09,274.82Z" transform="translate(-0.97 -2.5)"/>
    <path class="b" d="M2003.41,37.67c0,3,1.77,5.49,3.94,5.49s3.94-2.46,3.94-5.49-1.77-5.49-3.94-5.49S2003.41,34.63,2003.41,37.67Z" transform="translate(-0.97 -2.5)"/>
    <path class="b" d="M1970.09,274.82c0,3,1.76,5.49,3.94,5.49s3.93-2.46,3.93-5.49-1.76-5.49-3.93-5.49S1970.09,271.78,1970.09,274.82Z" transform="translate(-0.97 -2.5)"/>
    <path class="b" d="M1503.57,758.41c0,3,1.77,5.5,3.94,5.5s3.94-2.46,3.94-5.5-1.77-5.49-3.94-5.49S1503.57,755.38,1503.57,758.41Z" transform="translate(-0.97 -2.5)"/>
    <path class="b" d="M1533.56,972.32c0,3,1.77,5.49,3.94,5.49s3.94-2.47,3.94-5.49-1.77-5.5-3.94-5.5S1533.56,969.28,1533.56,972.32Z" transform="translate(-0.97 -2.5)"/>
    <path class="b" d="M1453.59,958.36c0,3,1.76,5.5,3.94,5.5s3.93-2.46,3.93-5.5-1.76-5.49-3.93-5.49S1453.59,955.33,1453.59,958.36Z" transform="translate(-0.97 -2.5)"/>
    <path class="b" d="M1503.57,758.41c0,3,1.77,5.5,3.94,5.5s3.94-2.46,3.94-5.5-1.77-5.49-3.94-5.49S1503.57,755.38,1503.57,758.41Z" transform="translate(-0.97 -2.5)"/>
    <path class="b" d="M1643.53,763.06c0,3,1.76,5.49,3.94,5.49s3.93-2.45,3.93-5.49-1.76-5.49-3.93-5.49S1643.53,760,1643.53,763.06Z" transform="translate(-0.97 -2.5)"/>
    <path class="b" d="M1533.56,972.32c0,3,1.77,5.49,3.94,5.49s3.94-2.47,3.94-5.49-1.77-5.5-3.94-5.5S1533.56,969.28,1533.56,972.32Z" transform="translate(-0.97 -2.5)"/>
    <path class="b" d="M1503.57,758.41c0,3,1.77,5.5,3.94,5.5s3.94-2.46,3.94-5.5-1.77-5.49-3.94-5.49S1503.57,755.38,1503.57,758.41Z" transform="translate(-0.97 -2.5)"/>
    <path class="b" d="M1643.53,763.06c0,3,1.76,5.49,3.94,5.49s3.93-2.45,3.93-5.49-1.76-5.49-3.93-5.49S1643.53,760,1643.53,763.06Z" transform="translate(-0.97 -2.5)"/>
    <path class="b" d="M1633.53,711.92c0,3,1.76,5.49,3.94,5.49s3.93-2.46,3.93-5.49-1.76-5.49-3.93-5.49S1633.53,708.88,1633.53,711.92Z" transform="translate(-0.97 -2.5)"/>
    <path class="b" d="M1823.47,944.41c0,3,1.76,5.49,3.94,5.49s3.93-2.45,3.93-5.49-1.76-5.49-3.93-5.49S1823.47,941.38,1823.47,944.41Z" transform="translate(-0.97 -2.5)"/>
    <path class="b" d="M1823.47,944.41c0,3,1.76,5.49,3.94,5.49s3.93-2.45,3.93-5.49-1.76-5.49-3.93-5.49S1823.47,941.38,1823.47,944.41Z" transform="translate(-0.97 -2.5)"/>
    <path class="b" d="M2003.41,37.67c0,3,1.77,5.49,3.94,5.49s3.94-2.46,3.94-5.49-1.77-5.49-3.94-5.49S2003.41,34.63,2003.41,37.67Z" transform="translate(-0.97 -2.5)"/>
    <path class="b" d="M1710.17,930.46c0,3,1.76,5.5,3.94,5.5s3.94-2.46,3.94-5.5-1.77-5.49-3.94-5.49S1710.17,927.43,1710.17,930.46Z" transform="translate(-0.97 -2.5)"/>
    <path class="b" d="M1796.81,874.66c0,3,1.76,5.5,3.94,5.5s3.93-2.46,3.93-5.5-1.76-5.49-3.93-5.49S1796.81,871.63,1796.81,874.66Z" transform="translate(-0.97 -2.5)"/>
    <path class="b" d="M1743.5,814.21c0,3,1.76,5.5,3.93,5.5s3.94-2.46,3.94-5.5-1.76-5.49-3.94-5.49S1743.5,811.18,1743.5,814.21Z" transform="translate(-0.97 -2.5)"/>
    <path class="b" d="M1710.17,930.46c0,3,1.76,5.5,3.94,5.5s3.94-2.46,3.94-5.5-1.77-5.49-3.94-5.49S1710.17,927.43,1710.17,930.46Z" transform="translate(-0.97 -2.5)"/>
    <path class="b" d="M1823.47,944.41c0,3,1.76,5.49,3.94,5.49s3.93-2.45,3.93-5.49-1.76-5.49-3.93-5.49S1823.47,941.38,1823.47,944.41Z" transform="translate(-0.97 -2.5)"/>
    <path class="b" d="M1796.81,874.66c0,3,1.76,5.5,3.94,5.5s3.93-2.46,3.93-5.5-1.76-5.49-3.93-5.49S1796.81,871.63,1796.81,874.66Z" transform="translate(-0.97 -2.5)"/>
    <path class="b" d="M1710.17,930.46c0,3,1.76,5.5,3.94,5.5s3.94-2.46,3.94-5.5-1.77-5.49-3.94-5.49S1710.17,927.43,1710.17,930.46Z" transform="translate(-0.97 -2.5)"/>
    <path class="b" d="M1533.56,972.32c0,3,1.77,5.49,3.94,5.49s3.94-2.47,3.94-5.49-1.77-5.5-3.94-5.5S1533.56,969.28,1533.56,972.32Z" transform="translate(-0.97 -2.5)"/>
    <path class="b" d="M1710.17,930.46c0,3,1.76,5.5,3.94,5.5s3.94-2.46,3.94-5.5-1.77-5.49-3.94-5.49S1710.17,927.43,1710.17,930.46Z" transform="translate(-0.97 -2.5)"/>
    <path class="b" d="M1643.53,763.06c0,3,1.76,5.49,3.94,5.49s3.93-2.45,3.93-5.49-1.76-5.49-3.93-5.49S1643.53,760,1643.53,763.06Z" transform="translate(-0.97 -2.5)"/>
    <path class="b" d="M1533.56,972.32c0,3,1.77,5.49,3.94,5.49s3.94-2.47,3.94-5.49-1.77-5.5-3.94-5.5S1533.56,969.28,1533.56,972.32Z" transform="translate(-0.97 -2.5)"/>
    <path class="b" d="M1710.17,930.46c0,3,1.76,5.5,3.94,5.5s3.94-2.46,3.94-5.5-1.77-5.49-3.94-5.49S1710.17,927.43,1710.17,930.46Z" transform="translate(-0.97 -2.5)"/>
    <path class="b" d="M1710.17,930.46c0,3,1.76,5.5,3.94,5.5s3.94-2.46,3.94-5.5-1.77-5.49-3.94-5.49S1710.17,927.43,1710.17,930.46Z" transform="translate(-0.97 -2.5)"/>
    <path class="b" d="M1743.5,814.21c0,3,1.76,5.5,3.93,5.5s3.94-2.46,3.94-5.5-1.76-5.49-3.94-5.49S1743.5,811.18,1743.5,814.21Z" transform="translate(-0.97 -2.5)"/>
    <path class="b" d="M1643.53,763.06c0,3,1.76,5.49,3.94,5.49s3.93-2.45,3.93-5.49-1.76-5.49-3.93-5.49S1643.53,760,1643.53,763.06Z" transform="translate(-0.97 -2.5)"/>
    <path class="b" d="M1710.17,930.46c0,3,1.76,5.5,3.94,5.5s3.94-2.46,3.94-5.5-1.77-5.49-3.94-5.49S1710.17,927.43,1710.17,930.46Z" transform="translate(-0.97 -2.5)"/>
    <path class="b" d="M1823.47,944.41c0,3,1.76,5.49,3.94,5.49s3.93-2.45,3.93-5.49-1.76-5.49-3.93-5.49S1823.47,941.38,1823.47,944.41Z" transform="translate(-0.97 -2.5)"/>
    <path class="b" d="M1503.57,758.41c0,3,1.77,5.5,3.94,5.5s3.94-2.46,3.94-5.5-1.77-5.49-3.94-5.49S1503.57,755.38,1503.57,758.41Z" transform="translate(-0.97 -2.5)"/>
    <path class="b" d="M1633.53,711.92c0,3,1.76,5.49,3.94,5.49s3.93-2.46,3.93-5.49-1.76-5.49-3.93-5.49S1633.53,708.88,1633.53,711.92Z" transform="translate(-0.97 -2.5)"/>
    <path class="b" d="M1503.57,758.41c0,3,1.77,5.5,3.94,5.5s3.94-2.46,3.94-5.5-1.77-5.49-3.94-5.49S1503.57,755.38,1503.57,758.41Z" transform="translate(-0.97 -2.5)"/>
    <path class="b" d="M1633.53,711.92c0,3,1.76,5.49,3.94,5.49s3.93-2.46,3.93-5.49-1.76-5.49-3.93-5.49S1633.53,708.88,1633.53,711.92Z" transform="translate(-0.97 -2.5)"/>
    <path class="b" d="M1423.6,893.26c0,3,1.76,5.49,3.94,5.49s3.93-2.45,3.93-5.49-1.76-5.49-3.93-5.49S1423.6,890.24,1423.6,893.26Z" transform="translate(-0.97 -2.5)"/>
    <path class="b" d="M1503.57,758.41c0,3,1.77,5.5,3.94,5.5s3.94-2.46,3.94-5.5-1.77-5.49-3.94-5.49S1503.57,755.38,1503.57,758.41Z" transform="translate(-0.97 -2.5)"/>
    <path class="b" d="M1423.6,893.26c0,3,1.76,5.49,3.94,5.49s3.93-2.45,3.93-5.49-1.76-5.49-3.93-5.49S1423.6,890.24,1423.6,893.26Z" transform="translate(-0.97 -2.5)"/>
    <path class="b" d="M1503.57,758.41c0,3,1.77,5.5,3.94,5.5s3.94-2.46,3.94-5.5-1.77-5.49-3.94-5.49S1503.57,755.38,1503.57,758.41Z" transform="translate(-0.97 -2.5)"/>
    <path class="b" d="M1453.59,958.36c0,3,1.76,5.5,3.94,5.5s3.93-2.46,3.93-5.5-1.76-5.49-3.93-5.49S1453.59,955.33,1453.59,958.36Z" transform="translate(-0.97 -2.5)"/>
    <path class="b" d="M1423.6,893.26c0,3,1.76,5.49,3.94,5.49s3.93-2.45,3.93-5.49-1.76-5.49-3.93-5.49S1423.6,890.24,1423.6,893.26Z" transform="translate(-0.97 -2.5)"/>
    <path class="b" d="M2136.7,609.62c0,3,1.77,5.49,3.94,5.49s3.93-2.46,3.93-5.49-1.76-5.5-3.93-5.5S2136.7,606.58,2136.7,609.62Z" transform="translate(-0.97 -2.5)"/>
    <path class="b" d="M2110.05,586.37c0,3,1.76,5.49,3.93,5.49s3.93-2.46,3.93-5.49-1.75-5.5-3.93-5.5S2110.05,583.33,2110.05,586.37Z" transform="translate(-0.97 -2.5)"/>
    <path class="b" d="M2063.39,707.26c0,3,1.77,5.5,3.94,5.5s3.93-2.46,3.93-5.5-1.76-5.49-3.93-5.49S2063.39,704.23,2063.39,707.26Z" transform="translate(-0.97 -2.5)"/>
    <path class="b" d="M2136.7,609.62c0,3,1.77,5.49,3.94,5.49s3.93-2.46,3.93-5.49-1.76-5.5-3.93-5.5S2136.7,606.58,2136.7,609.62Z" transform="translate(-0.97 -2.5)"/>
    <path class="b" d="M2120,767.72c0,3,1.76,5.49,3.94,5.49s3.93-2.46,3.93-5.49-1.76-5.5-3.93-5.5S2120,764.68,2120,767.72Z" transform="translate(-0.97 -2.5)"/>
    <path class="b" d="M2063.39,707.26c0,3,1.77,5.5,3.94,5.5s3.93-2.46,3.93-5.5-1.76-5.49-3.93-5.49S2063.39,704.23,2063.39,707.26Z" transform="translate(-0.97 -2.5)"/>
    <path class="b" d="M2136.7,609.62c0,3,1.77,5.49,3.94,5.49s3.93-2.46,3.93-5.49-1.76-5.5-3.93-5.5S2136.7,606.58,2136.7,609.62Z" transform="translate(-0.97 -2.5)"/>
    <path class="b" d="M2110.05,586.37c0,3,1.76,5.49,3.93,5.49s3.93-2.46,3.93-5.49-1.75-5.5-3.93-5.5S2110.05,583.33,2110.05,586.37Z" transform="translate(-0.97 -2.5)"/>
    <path class="b" d="M2136.7,609.62c0,3,1.77,5.49,3.94,5.49s3.93-2.46,3.93-5.49-1.76-5.5-3.93-5.5S2136.7,606.58,2136.7,609.62Z" transform="translate(-0.97 -2.5)"/>
    <path class="b" d="M2120,767.72c0,3,1.76,5.49,3.94,5.49s3.93-2.46,3.93-5.49-1.76-5.5-3.93-5.5S2120,764.68,2120,767.72Z" transform="translate(-0.97 -2.5)"/>
    <path class="b" d="M2110.05,586.37c0,3,1.76,5.49,3.93,5.49s3.93-2.46,3.93-5.49-1.75-5.5-3.93-5.5S2110.05,583.33,2110.05,586.37Z" transform="translate(-0.97 -2.5)"/>
    <path class="b" d="M1903.44,786.32c0,3,1.77,5.49,3.94,5.49s3.94-2.46,3.94-5.49-1.77-5.5-3.94-5.5S1903.44,783.28,1903.44,786.32Z" transform="translate(-0.97 -2.5)"/>
    <path class="b" d="M1893.45,591c0,3,1.76,5.49,3.94,5.49s3.93-2.46,3.93-5.49-1.76-5.5-3.93-5.5S1893.45,588,1893.45,591Z" transform="translate(-0.97 -2.5)"/>
    <path class="b" d="M1790.15,642.17c0,3,1.76,5.49,3.93,5.49s3.94-2.46,3.94-5.49-1.76-5.5-3.94-5.5S1790.15,639.13,1790.15,642.17Z" transform="translate(-0.97 -2.5)"/>
    <path class="b" d="M1903.44,786.32c0,3,1.77,5.49,3.94,5.49s3.94-2.46,3.94-5.49-1.77-5.5-3.94-5.5S1903.44,783.28,1903.44,786.32Z" transform="translate(-0.97 -2.5)"/>
    <path class="b" d="M1823.47,944.41c0,3,1.76,5.49,3.94,5.49s3.93-2.45,3.93-5.49-1.76-5.49-3.93-5.49S1823.47,941.38,1823.47,944.41Z" transform="translate(-0.97 -2.5)"/>
    <path class="b" d="M1796.81,874.66c0,3,1.76,5.5,3.94,5.5s3.93-2.46,3.93-5.5-1.76-5.49-3.93-5.49S1796.81,871.63,1796.81,874.66Z" transform="translate(-0.97 -2.5)"/>
    <path class="b" d="M1903.44,786.32c0,3,1.77,5.49,3.94,5.49s3.94-2.46,3.94-5.49-1.77-5.5-3.94-5.5S1903.44,783.28,1903.44,786.32Z" transform="translate(-0.97 -2.5)"/>
    <path class="b" d="M2083.39,981.62c0,3,1.76,5.49,3.93,5.49s3.94-2.46,3.94-5.49-1.76-5.5-3.94-5.5S2083.39,978.58,2083.39,981.62Z" transform="translate(-0.97 -2.5)"/>
    <path class="b" d="M1823.47,944.41c0,3,1.76,5.49,3.94,5.49s3.93-2.45,3.93-5.49-1.76-5.49-3.93-5.49S1823.47,941.38,1823.47,944.41Z" transform="translate(-0.97 -2.5)"/>
    <path class="b" d="M1903.44,786.32c0,3,1.77,5.49,3.94,5.49s3.94-2.46,3.94-5.49-1.77-5.5-3.94-5.5S1903.44,783.28,1903.44,786.32Z" transform="translate(-0.97 -2.5)"/>
    <path class="b" d="M2063.39,707.26c0,3,1.77,5.5,3.94,5.5s3.93-2.46,3.93-5.5-1.76-5.49-3.93-5.49S2063.39,704.23,2063.39,707.26Z" transform="translate(-0.97 -2.5)"/>
    <path class="b" d="M1893.45,591c0,3,1.76,5.49,3.94,5.49s3.93-2.46,3.93-5.49-1.76-5.5-3.93-5.5S1893.45,588,1893.45,591Z" transform="translate(-0.97 -2.5)"/>
    <path class="b" d="M1903.44,786.32c0,3,1.77,5.49,3.94,5.49s3.94-2.46,3.94-5.49-1.77-5.5-3.94-5.5S1903.44,783.28,1903.44,786.32Z" transform="translate(-0.97 -2.5)"/>
    <path class="b" d="M2083.39,981.62c0,3,1.76,5.49,3.93,5.49s3.94-2.46,3.94-5.49-1.76-5.5-3.94-5.5S2083.39,978.58,2083.39,981.62Z" transform="translate(-0.97 -2.5)"/>
    <path class="b" d="M2063.39,707.26c0,3,1.77,5.5,3.94,5.5s3.93-2.46,3.93-5.5-1.76-5.49-3.93-5.49S2063.39,704.23,2063.39,707.26Z" transform="translate(-0.97 -2.5)"/>
    <path class="b" d="M2010.08,326c0,3,1.76,5.49,3.93,5.49S2018,329,2018,326s-1.77-5.49-3.94-5.49S2010.08,322.93,2010.08,326Z" transform="translate(-0.97 -2.5)"/>
    <path class="b" d="M1970.09,274.82c0,3,1.76,5.49,3.94,5.49s3.93-2.46,3.93-5.49-1.76-5.49-3.93-5.49S1970.09,271.78,1970.09,274.82Z" transform="translate(-0.97 -2.5)"/>
    <path class="b" d="M1893.45,535.21c0,3,1.76,5.5,3.94,5.5s3.93-2.46,3.93-5.5-1.76-5.49-3.93-5.49S1893.45,532.18,1893.45,535.21Z" transform="translate(-0.97 -2.5)"/>
    <path class="b" d="M2010.08,326c0,3,1.76,5.49,3.93,5.49S2018,329,2018,326s-1.77-5.49-3.94-5.49S2010.08,322.93,2010.08,326Z" transform="translate(-0.97 -2.5)"/>
    <path class="b" d="M2110.05,586.37c0,3,1.76,5.49,3.93,5.49s3.93-2.46,3.93-5.49-1.75-5.5-3.93-5.5S2110.05,583.33,2110.05,586.37Z" transform="translate(-0.97 -2.5)"/>
    <path class="b" d="M1893.45,535.21c0,3,1.76,5.5,3.94,5.5s3.93-2.46,3.93-5.5-1.76-5.49-3.93-5.49S1893.45,532.18,1893.45,535.21Z" transform="translate(-0.97 -2.5)"/>
    <path class="b" d="M1810.14,804.92c0,3,1.76,5.49,3.94,5.49s3.93-2.46,3.93-5.49-1.76-5.49-3.93-5.49S1810.14,801.88,1810.14,804.92Z" transform="translate(-0.97 -2.5)"/>
    <path class="b" d="M1790.15,642.17c0,3,1.76,5.49,3.93,5.49s3.94-2.46,3.94-5.49-1.76-5.5-3.94-5.5S1790.15,639.13,1790.15,642.17Z" transform="translate(-0.97 -2.5)"/>
    <path class="b" d="M1743.5,814.21c0,3,1.76,5.5,3.93,5.5s3.94-2.46,3.94-5.5-1.76-5.49-3.94-5.49S1743.5,811.18,1743.5,814.21Z" transform="translate(-0.97 -2.5)"/>
    <path class="b" d="M1810.14,804.92c0,3,1.76,5.49,3.94,5.49s3.93-2.46,3.93-5.49-1.76-5.49-3.93-5.49S1810.14,801.88,1810.14,804.92Z" transform="translate(-0.97 -2.5)"/>
    <path class="b" d="M1800.14,814.21c0,3,1.77,5.5,3.94,5.5s3.94-2.46,3.94-5.5-1.77-5.49-3.94-5.49S1800.14,811.18,1800.14,814.21Z" transform="translate(-0.97 -2.5)"/>
    <path class="b" d="M1743.5,814.21c0,3,1.76,5.5,3.93,5.5s3.94-2.46,3.94-5.5-1.76-5.49-3.94-5.49S1743.5,811.18,1743.5,814.21Z" transform="translate(-0.97 -2.5)"/>
    <path class="b" d="M1810.14,804.92c0,3,1.76,5.49,3.94,5.49s3.93-2.46,3.93-5.49-1.76-5.49-3.93-5.49S1810.14,801.88,1810.14,804.92Z" transform="translate(-0.97 -2.5)"/>
    <path class="b" d="M1903.44,786.32c0,3,1.77,5.49,3.94,5.49s3.94-2.46,3.94-5.49-1.77-5.5-3.94-5.5S1903.44,783.28,1903.44,786.32Z" transform="translate(-0.97 -2.5)"/>
    <path class="b" d="M1790.15,642.17c0,3,1.76,5.49,3.93,5.49s3.94-2.46,3.94-5.49-1.76-5.5-3.94-5.5S1790.15,639.13,1790.15,642.17Z" transform="translate(-0.97 -2.5)"/>
    <path class="b" d="M1810.14,804.92c0,3,1.76,5.49,3.94,5.49s3.93-2.46,3.93-5.49-1.76-5.49-3.93-5.49S1810.14,801.88,1810.14,804.92Z" transform="translate(-0.97 -2.5)"/>
    <path class="b" d="M1800.14,814.21c0,3,1.77,5.5,3.94,5.5s3.94-2.46,3.94-5.5-1.77-5.49-3.94-5.49S1800.14,811.18,1800.14,814.21Z" transform="translate(-0.97 -2.5)"/>
    <path class="b" d="M1796.81,874.66c0,3,1.76,5.5,3.94,5.5s3.93-2.46,3.93-5.5-1.76-5.49-3.93-5.49S1796.81,871.63,1796.81,874.66Z" transform="translate(-0.97 -2.5)"/>
    <path class="b" d="M1810.14,804.92c0,3,1.76,5.49,3.94,5.49s3.93-2.46,3.93-5.49-1.76-5.49-3.93-5.49S1810.14,801.88,1810.14,804.92Z" transform="translate(-0.97 -2.5)"/>
    <path class="b" d="M1903.44,786.32c0,3,1.77,5.49,3.94,5.49s3.94-2.46,3.94-5.49-1.77-5.5-3.94-5.5S1903.44,783.28,1903.44,786.32Z" transform="translate(-0.97 -2.5)"/>
    <path class="b" d="M1796.81,874.66c0,3,1.76,5.5,3.94,5.5s3.93-2.46,3.93-5.5-1.76-5.49-3.93-5.49S1796.81,871.63,1796.81,874.66Z" transform="translate(-0.97 -2.5)"/>
    <path class="b" d="M2003.41,37.67c0,3,1.77,5.49,3.94,5.49s3.94-2.46,3.94-5.49-1.77-5.49-3.94-5.49S2003.41,34.63,2003.41,37.67Z" transform="translate(-0.97 -2.5)"/>
    <path class="b" d="M2003.41,37.67c0,3,1.77,5.49,3.94,5.49s3.94-2.46,3.94-5.49-1.77-5.49-3.94-5.49S2003.41,34.63,2003.41,37.67Z" transform="translate(-0.97 -2.5)"/>
    <path class="b" d="M2003.41,37.67c0,3,1.77,5.49,3.94,5.49s3.94-2.46,3.94-5.49-1.77-5.49-3.94-5.49S2003.41,34.63,2003.41,37.67Z" transform="translate(-0.97 -2.5)"/>
    <path class="b" d="M2003.41,37.67c0,3,1.77,5.49,3.94,5.49s3.94-2.46,3.94-5.49-1.77-5.49-3.94-5.49S2003.41,34.63,2003.41,37.67Z" transform="translate(-0.97 -2.5)"/>
    <path class="b" d="M1970.09,274.82c0,3,1.76,5.49,3.94,5.49s3.93-2.46,3.93-5.49-1.76-5.49-3.93-5.49S1970.09,271.78,1970.09,274.82Z" transform="translate(-0.97 -2.5)"/>
    <path class="b" d="M2010.08,326c0,3,1.76,5.49,3.93,5.49S2018,329,2018,326s-1.77-5.49-3.94-5.49S2010.08,322.93,2010.08,326Z" transform="translate(-0.97 -2.5)"/>
    <path class="b" d="M1970.09,274.82c0,3,1.76,5.49,3.94,5.49s3.93-2.46,3.93-5.49-1.76-5.49-3.93-5.49S1970.09,271.78,1970.09,274.82Z" transform="translate(-0.97 -2.5)"/>
    <path class="b" d="M2003.41,37.67c0,3,1.77,5.49,3.94,5.49s3.94-2.46,3.94-5.49-1.77-5.49-3.94-5.49S2003.41,34.63,2003.41,37.67Z" transform="translate(-0.97 -2.5)"/>
    <path class="b" d="M2110.05,586.37c0,3,1.76,5.49,3.93,5.49s3.93-2.46,3.93-5.49-1.75-5.5-3.93-5.5S2110.05,583.33,2110.05,586.37Z" transform="translate(-0.97 -2.5)"/>
    <path class="b" d="M2010.08,326c0,3,1.76,5.49,3.93,5.49S2018,329,2018,326s-1.77-5.49-3.94-5.49S2010.08,322.93,2010.08,326Z" transform="translate(-0.97 -2.5)"/>
    <path class="b" d="M2110.05,586.37c0,3,1.76,5.49,3.93,5.49s3.93-2.46,3.93-5.49-1.75-5.5-3.93-5.5S2110.05,583.33,2110.05,586.37Z" transform="translate(-0.97 -2.5)"/>
    <path class="b" d="M1453.59,958.36c0,3,1.76,5.5,3.94,5.5s3.93-2.46,3.93-5.5-1.76-5.49-3.93-5.49S1453.59,955.33,1453.59,958.36Z" transform="translate(-0.97 -2.5)"/>
    <path class="b" d="M1453.59,958.36c0,3,1.76,5.5,3.94,5.5s3.93-2.46,3.93-5.5-1.76-5.49-3.93-5.49S1453.59,955.33,1453.59,958.36Z" transform="translate(-0.97 -2.5)"/>
    <path class="b" d="M1423.6,893.26c0,3,1.76,5.49,3.94,5.49s3.93-2.45,3.93-5.49-1.76-5.49-3.93-5.49S1423.6,890.24,1423.6,893.26Z" transform="translate(-0.97 -2.5)"/>
    <path class="b" d="M2120,767.72c0,3,1.76,5.49,3.94,5.49s3.93-2.46,3.93-5.49-1.76-5.5-3.93-5.5S2120,764.68,2120,767.72Z" transform="translate(-0.97 -2.5)"/>
    <path class="b" d="M2083.39,981.62c0,3,1.76,5.49,3.93,5.49s3.94-2.46,3.94-5.49-1.76-5.5-3.94-5.5S2083.39,978.58,2083.39,981.62Z" transform="translate(-0.97 -2.5)"/>
    <path class="b" d="M2120,767.72c0,3,1.76,5.49,3.94,5.49s3.93-2.46,3.93-5.49-1.76-5.5-3.93-5.5S2120,764.68,2120,767.72Z" transform="translate(-0.97 -2.5)"/>
    <path class="b" d="M2083.39,981.62c0,3,1.76,5.49,3.93,5.49s3.94-2.46,3.94-5.49-1.76-5.5-3.94-5.5S2083.39,978.58,2083.39,981.62Z" transform="translate(-0.97 -2.5)"/>
    <path class="b" d="M2083.39,981.62c0,3,1.76,5.49,3.93,5.49s3.94-2.46,3.94-5.49-1.76-5.5-3.94-5.5S2083.39,978.58,2083.39,981.62Z" transform="translate(-0.97 -2.5)"/>
  </g>
  <g>
    <path class="b" d="M299.3,147.26c3,0,5.38-2.93,5.38-6.56s-2.4-6.55-5.38-6.55c-2.5,0-4.6,2.07-5.18,4.91H2v3.28H294.12C294.7,145.17,296.8,147.26,299.3,147.26Zm0-10.51c1.76,0,3.22,1.77,3.22,3.95s-1.46,3.94-3.22,3.94-3.23-1.78-3.23-3.94S297.54,136.75,299.33,136.75Z" transform="translate(-0.97 -2.5)"/>
    <path class="b" d="M308.28,136.31c3,0,5.38-2.93,5.38-6.56s-2.4-6.56-5.38-6.56c-2.5,0-4.61,2.09-5.2,4.93H2v3.27H303.08C303.67,134.23,305.78,136.31,308.28,136.31Zm0-10.5c1.76,0,3.23,1.78,3.23,3.94s-1.47,3.94-3.23,3.94-3.23-1.77-3.23-3.94S306.5,125.81,308.28,125.81Z" transform="translate(-0.97 -2.5)"/>
    <path class="b" d="M451.61,103.49c2.51,0,4.61-2.11,5.2-4.93H535l98.59,98.51H668c.61,2.82,2.69,4.92,5.2,4.92,3,0,5.36-2.94,5.36-6.56s-2.4-6.56-5.36-6.56c-2.51,0-4.59,2.08-5.2,4.91H634.6L536,95.27H456.81c-.59-2.81-2.69-4.91-5.2-4.91-3,0-5.38,3-5.38,6.57S448.63,103.49,451.61,103.49ZM670,195.41c0-2.16,1.46-3.92,3.23-3.92s3.22,1.76,3.22,3.94-1.45,3.94-3.22,3.94-3.23-1.76-3.23-3.92ZM451.61,93c1.77,0,3.22,1.77,3.22,3.94s-1.45,3.94-3.22,3.94-3.23-1.76-3.23-3.94S449.82,93,451.61,93Z" transform="translate(-0.97 -2.5)"/>
    <path class="b" d="M677,171.9H636.1c-.59-2.83-2.7-4.93-5.2-4.93-3,0-5.37,2.95-5.37,6.56s2.4,6.57,5.37,6.57c2.5,0,4.61-2.09,5.2-4.92H677c.59,2.83,2.69,4.92,5.18,4.92,3,0,5.4-2.95,5.4-6.57s-2.42-6.56-5.4-6.56C679.67,167,677.57,169.07,677,171.9Zm-46.08,5.58c-1.79,0-3.24-1.78-3.24-3.95s1.45-3.93,3.24-3.93,3.22,1.76,3.22,3.93S632.68,177.48,630.9,177.48Zm54.48-3.95c0,2.17-1.44,3.95-3.22,3.95S679,175.7,679,173.53s1.44-3.93,3.21-3.93S685.38,171.36,685.38,173.53Z" transform="translate(-0.97 -2.5)"/>
    <path class="b" d="M621.92,169.16c2.52,0,4.6-2.08,5.2-4.93H668c.61,2.85,2.69,4.93,5.2,4.93,3,0,5.36-2.94,5.36-6.56s-2.4-6.57-5.36-6.57c-2.51,0-4.59,2.1-5.2,4.94H627.12c-.6-2.84-2.68-4.94-5.2-4.94-3,0-5.36,2.93-5.36,6.57S619,169.16,621.92,169.16Zm51.29-10.5c1.77,0,3.22,1.76,3.22,3.94s-1.45,3.93-3.22,3.93S670,164.77,670,162.6,671.42,158.66,673.21,158.66Zm-51.29,0c1.79,0,3.24,1.76,3.24,3.94s-1.45,3.93-3.24,3.93-3.22-1.76-3.22-3.93S620.15,158.66,621.92,158.66Z" transform="translate(-0.97 -2.5)"/>
    <path class="b" d="M442.63,114.44c2.52,0,4.63-2.1,5.21-4.92H535L633.63,208h25.42c.59,2.84,2.68,4.93,5.18,4.93,3,0,5.38-2.92,5.38-6.55s-2.39-6.57-5.38-6.57c-2.5,0-4.59,2.1-5.18,4.92H634.6L536,106.24H447.84c-.58-2.83-2.69-4.94-5.21-4.94-3,0-5.37,3-5.37,6.57S439.66,114.44,442.63,114.44Zm221.6,88c1.79,0,3.23,1.76,3.23,3.94s-1.44,3.93-3.23,3.93-3.21-1.77-3.21-3.93S662.45,202.44,664.23,202.44Zm-221.6-98.51c1.79,0,3.24,1.77,3.24,3.94s-1.45,3.95-3.24,3.95-3.21-1.76-3.21-3.95S440.85,103.93,442.63,103.93Z" transform="translate(-0.97 -2.5)"/>
    <path class="b" d="M326.09,147.28c2.52,0,4.63-2.1,5.21-4.94h58.81c.6,2.84,2.69,4.94,5.2,4.94,3,0,5.35-2.95,5.35-6.57s-2.37-6.56-5.35-6.56c-2.51,0-4.6,2.09-5.2,4.91H331.3c-.6-2.82-2.69-4.91-5.21-4.91-3,0-5.36,2.94-5.36,6.56S323.13,147.28,326.09,147.28Zm66-6.58c0-2.16,1.46-3.93,3.23-3.93s3.23,1.77,3.23,3.94-1.44,3.94-3.23,3.94-3.23-1.76-3.23-3.93Zm-66-3.93c1.79,0,3.24,1.77,3.24,3.93v0c0,2.17-1.45,3.93-3.24,3.93s-3.2-1.76-3.2-3.94S324.32,136.77,326.09,136.77Z" transform="translate(-0.97 -2.5)"/>
    <path class="b" d="M630.9,147.28c2.5,0,4.61-2.1,5.2-4.94h25.63l17.94-32.82h24.18c.6,2.82,2.72,4.92,5.22,4.92,3,0,5.37-2.94,5.37-6.57s-2.41-6.57-5.37-6.57c-2.5,0-4.62,2.11-5.2,4.94H678.24l-18,32.82H636.1c-.59-2.82-2.7-4.91-5.2-4.91-3,0-5.37,2.94-5.37,6.56S627.93,147.28,630.9,147.28Zm74.94-39.42c0-2.16,1.44-3.93,3.23-3.93s3.22,1.77,3.22,3.94-1.45,3.95-3.22,3.95-3.22-1.76-3.23-3.95ZM630.9,136.77c1.78,0,3.22,1.77,3.22,3.94s-1.44,3.94-3.22,3.94-3.24-1.76-3.24-3.94S629.11,136.77,630.9,136.77Z" transform="translate(-0.97 -2.5)"/>
    <path class="b" d="M706,150c-.59-2.83-2.7-4.92-5.2-4.92-3,0-5.38,2.93-5.38,6.56s2.4,6.57,5.38,6.57c2.5,0,4.6-2.1,5.2-4.92H996.65V150Zm-5.2,5.58c-1.79,0-3.24-1.76-3.24-3.94s1.45-3.94,3.24-3.94,3.23,1.77,3.23,3.94S702.55,155.59,700.77,155.59Z" transform="translate(-0.97 -2.5)"/>
    <path class="b" d="M733.18,248.5H571.85L527,204.73H385.08c-.59-2.82-2.68-4.92-5.21-4.92-2.95,0-5.38,2.94-5.38,6.57s2.43,6.55,5.38,6.55c2.53,0,4.62-2.09,5.22-4.93h141l44.81,43.8,161.39,0,35.87,32.86h228.5v-3.29H769ZM379.9,210.31c-1.8,0-3.25-1.77-3.25-3.93s1.45-3.94,3.25-3.94,3.21,1.76,3.21,3.94S381.66,210.31,379.9,210.31Z" transform="translate(-0.97 -2.5)"/>
    <path class="b" d="M733.18,237.56H571.85L527,193.78H376.14c-.61-2.83-2.72-4.91-5.22-4.91-3,0-5.38,2.94-5.38,6.56s2.4,6.56,5.38,6.56c2.5,0,4.61-2.09,5.22-4.92H526.08l44.81,43.77H732.28l35.87,32.83h228.5v-3.28H769Zm-359-42.11c0,2.16-1.45,3.92-3.23,3.92s-3.24-1.78-3.24-3.94,1.46-3.94,3.24-3.94,3.23,1.76,3.23,3.92Z" transform="translate(-0.97 -2.5)"/>
    <path class="b" d="M733.18,259.44H571.85L527,215.65l-150.88,0c-.61-2.84-2.72-4.93-5.22-4.93-3,0-5.38,2.93-5.38,6.56s2.4,6.58,5.38,6.58c2.5,0,4.61-2.1,5.22-4.92H526.08l44.81,43.77H732.28l35.87,32.83h228.5v-3.29H769Zm-359-42.1c0,2.16-1.45,3.91-3.23,3.91s-3.24-1.77-3.24-3.94,1.46-3.94,3.24-3.94,3.23,1.76,3.23,3.93Z" transform="translate(-0.97 -2.5)"/>
    <path class="b" d="M733.18,226.61H634.6L536,128.12H419.28l-35.85-21.88h-34.2c-.6-2.83-2.7-4.94-5.19-4.94-3,0-5.4,3-5.4,6.57s2.42,6.57,5.4,6.57c2.49,0,4.59-2.1,5.19-4.92H382.8l35.86,21.87H535l98.59,98.51h98.65l35.87,32.83h228.5v-3.29H769ZM344,111.82c-1.78,0-3.23-1.76-3.23-3.95s1.45-3.94,3.23-3.94,3.21,1.77,3.21,3.94S345.81,111.82,344,111.82Z" transform="translate(-0.97 -2.5)"/>
    <path class="b" d="M341.53,188.87c-2.51,0-4.6,2.08-5.22,4.91H2v3.29H336.31c.62,2.83,2.71,4.92,5.22,4.92,3,0,5.36-2.94,5.36-6.56S344.48,188.87,341.53,188.87Zm0,10.5c-1.77,0-3.22-1.76-3.25-3.92v0c0-2.16,1.48-3.92,3.25-3.92s3.22,1.77,3.22,3.94S343.29,199.37,341.53,199.37Z" transform="translate(-0.97 -2.5)"/>
    <path class="b" d="M733.18,270.39H571.85L527,226.61H385.08c-.59-2.82-2.68-4.92-5.21-4.92-2.95,0-5.38,2.93-5.38,6.57s2.43,6.56,5.38,6.56c2.53,0,4.62-2.08,5.22-4.91h141l44.81,43.78H732.28l35.87,32.81h228.5v-3.27H769ZM379.9,232.2c-1.8,0-3.25-1.76-3.25-3.94s1.45-3.93,3.25-3.93,3.21,1.75,3.21,3.93S381.66,232.2,379.9,232.2Z" transform="translate(-0.97 -2.5)"/>
    <path class="b" d="M733.18,215.65H634.6L536,117.17H419.28l-35.85-21.9H340.27c-.59-2.81-2.69-4.91-5.21-4.91-3,0-5.37,3-5.37,6.57s2.41,6.56,5.37,6.56c2.52,0,4.62-2.09,5.21-4.93H382.8l35.86,21.91,116.38,0L633.63,219h98.65l35.87,32.8h228.5V248.5H769ZM338.28,97c0,2.16-1.44,3.92-3.22,3.92s-3.23-1.76-3.23-3.94S333.29,93,335.06,93s3.22,1.77,3.22,3.93Z" transform="translate(-0.97 -2.5)"/>
    <path class="b" d="M299.3,112.24c-2.5,0-4.6,2.09-5.18,4.93H2v3.28H294.12c.58,2.84,2.68,4.92,5.18,4.92,3,0,5.38-2.94,5.38-6.57S302.28,112.24,299.3,112.24Zm0,10.51c-1.79,0-3.23-1.77-3.23-4s1.44-3.93,3.23-3.93,3.22,1.76,3.22,3.93S301.09,122.75,299.33,122.75Z" transform="translate(-0.97 -2.5)"/>
    <path class="b" d="M700.77,167c-3,0-5.38,2.95-5.38,6.56s2.4,6.57,5.38,6.57c2.5,0,4.61-2.09,5.2-4.92H996.65V171.9H706C705.38,169.06,703.27,167,700.77,167Zm0,10.51c-1.79,0-3.24-1.78-3.24-3.95s1.45-3.93,3.24-3.93,3.23,1.76,3.23,3.93S702.55,177.48,700.77,177.48Z" transform="translate(-0.97 -2.5)"/>
    <path class="b" d="M700.77,188.86c-3,0-5.38,2.93-5.38,6.57s2.4,6.56,5.38,6.56c2.5,0,4.61-2.1,5.2-4.92H996.65v-3.29H706C705.38,191,703.27,188.86,700.77,188.86Zm0,10.51c-1.79,0-3.24-1.78-3.24-3.94s1.45-4,3.24-4,3.23,1.77,3.23,4S702.55,199.37,700.77,199.37Z" transform="translate(-0.97 -2.5)"/>
    <path class="b" d="M709.72,177.9c-3,0-5.36,3-5.36,6.58s2.39,6.56,5.36,6.56c2.5,0,4.61-2.08,5.22-4.92H996.65v-3.27H714.94C714.33,180,712.22,177.9,709.72,177.9Zm3.26,6.59c0,2.17-1.48,3.93-3.26,3.93s-3.21-1.77-3.21-3.94,1.46-3.95,3.21-3.95,3.23,1.76,3.26,3.94Z" transform="translate(-0.97 -2.5)"/>
    <path class="b" d="M709.72,156c-3,0-5.36,2.94-5.36,6.58s2.39,6.56,5.36,6.56c2.5,0,4.61-2.08,5.22-4.92H996.65V161H714.94C714.33,158.13,712.22,156,709.72,156ZM713,162.6c0,2.17-1.48,3.92-3.26,3.92s-3.21-1.75-3.21-3.92,1.46-3.94,3.21-3.94,3.23,1.76,3.26,3.94Z" transform="translate(-0.97 -2.5)"/>
    <path class="b" d="M332.56,212.93c3,0,5.38-2.92,5.38-6.55s-2.42-6.57-5.38-6.57c-2.5,0-4.61,2.1-5.22,4.92H2V208H327.34C328,210.84,330.05,212.93,332.56,212.93Zm0-10.49c1.78,0,3.23,1.76,3.23,3.94s-1.45,3.93-3.23,3.93-3.23-1.77-3.23-3.93S330.78,202.44,332.56,202.44Z" transform="translate(-0.97 -2.5)"/>
    <path class="b" d="M570.89,219h25.39c.62,2.82,2.7,4.92,5.21,4.92,3,0,5.39-2.94,5.39-6.58s-2.41-6.56-5.39-6.56c-2.51,0-4.59,2.09-5.21,4.9H571.85L527,171.9H2v3.28H526.08Zm30.6-5.6c1.78,0,3.23,1.77,3.23,3.94s-1.45,3.94-3.23,3.94-3.22-1.77-3.22-3.94S599.72,213.37,601.49,213.37Z" transform="translate(-0.97 -2.5)"/>
    <path class="b" d="M332.56,256.71c3,0,5.38-2.95,5.38-6.57s-2.42-6.56-5.38-6.56c-2.5,0-4.61,2.1-5.22,4.92H2v3.27H327.34C328,254.63,330.05,256.71,332.56,256.71Zm0-10.5c1.78,0,3.23,1.77,3.23,3.91s-1.45,4-3.23,4-3.23-1.77-3.23-4S330.78,246.21,332.56,246.21Z" transform="translate(-0.97 -2.5)"/>
    <path class="b" d="M592.53,199.81c-2.5,0-4.61,2.1-5.2,4.92H571.85L527,161H2v3.27H526.08L570.89,208h16.44c.59,2.84,2.7,4.93,5.2,4.93,3,0,5.38-2.92,5.38-6.55S595.49,199.81,592.53,199.81Zm0,10.5c-1.77,0-3.23-1.77-3.23-3.93s1.46-3.94,3.23-3.94,3.24,1.76,3.24,3.94S594.29,210.31,592.53,210.31Z" transform="translate(-0.97 -2.5)"/>
    <path class="b" d="M332.56,234.82c3,0,5.38-2.94,5.38-6.56s-2.42-6.57-5.38-6.57c-2.5,0-4.61,2.1-5.22,4.92H2v3.3H327.34C328,232.74,330.05,234.82,332.56,234.82Zm0-10.49c1.78,0,3.23,1.76,3.23,3.93s-1.45,3.94-3.23,3.94-3.23-1.76-3.23-3.94S330.78,224.33,332.56,224.33Z" transform="translate(-0.97 -2.5)"/>
    <path class="b" d="M332.56,265.46c-2.5,0-4.61,2.11-5.22,4.93H2v3.3H327.34c.61,2.81,2.71,4.91,5.22,4.91,3,0,5.38-2.94,5.38-6.57S335.52,265.46,332.56,265.46Zm0,10.51c-1.78,0-3.23-1.77-3.23-3.94s1.45-3.91,3.23-3.91,3.23,1.76,3.23,3.91S334.34,276,332.56,276Z" transform="translate(-0.97 -2.5)"/>
    <path class="b" d="M2,98.56H309.41c.6,2.84,2.71,4.93,5.22,4.93,3,0,5.39-2.93,5.39-6.56s-2.42-6.57-5.39-6.57c-2.51,0-4.62,2.1-5.22,4.91H2Zm309.39-1.64c0-2.16,1.45-3.93,3.24-3.93s3.23,1.77,3.23,3.94-1.46,3.94-3.23,3.94-3.22-1.76-3.24-3.92Z" transform="translate(-0.97 -2.5)"/>
    <path class="b" d="M341.53,254.53c-2.51,0-4.6,2.11-5.22,4.92H2v3.29H336.31c.62,2.82,2.71,4.93,5.22,4.93,3,0,5.36-3,5.36-6.59S344.48,254.53,341.53,254.53Zm0,10.49c-1.77,0-3.22-1.76-3.25-3.93h0c0-2.16,1.48-3.94,3.25-3.94s3.22,1.78,3.22,3.94S343.29,265,341.53,265Z" transform="translate(-0.97 -2.5)"/>
    <path class="b" d="M341.53,232.65c-2.51,0-4.6,2.09-5.22,4.91H2v3.28H336.31c.62,2.83,2.71,4.93,5.22,4.93,3,0,5.36-2.94,5.36-6.58S344.48,232.65,341.53,232.65Zm0,10.48c-1.77,0-3.22-1.75-3.25-3.92v0c0-2.16,1.48-3.93,3.25-3.93s3.22,1.77,3.22,3.93S343.29,243.13,341.53,243.13Z" transform="translate(-0.97 -2.5)"/>
    <path class="b" d="M341.53,210.75c-2.51,0-4.6,2.09-5.22,4.93H2V219H336.31c.62,2.82,2.71,4.92,5.22,4.92,3,0,5.36-2.94,5.36-6.58S344.48,210.75,341.53,210.75Zm0,10.5c-1.77,0-3.22-1.75-3.25-3.91v0c0-2.17,1.48-3.93,3.25-3.93s3.22,1.77,3.22,3.94S343.29,221.25,341.53,221.25Z" transform="translate(-0.97 -2.5)"/>
  </g>
</svg>
